<svg id="svg" xmlns="http://www.w3.org/2000/svg" xmlns:xlink="http://www.w3.org/1999/xlink" width="400" height="400" viewBox="0, 0, 400,400" version="1.1"><g id="svgg"><path id="path0" d="M214.669 65.465 C 214.066 66.068,214.394 69.707,215.100 70.243 C 215.669 70.675,215.688 70.779,215.200 70.800 C 214.720 70.820,214.744 70.935,215.320 71.371 C 215.716 71.672,216.080 72.521,216.130 73.259 C 216.179 73.996,216.360 74.825,216.533 75.100 C 216.706 75.375,216.736 75.780,216.600 76.000 C 216.464 76.220,216.543 76.400,216.776 76.400 C 217.009 76.400,217.200 76.925,217.200 77.567 C 217.200 78.208,217.402 78.801,217.650 78.883 C 217.897 78.966,218.129 79.811,218.167 80.761 C 218.205 81.738,218.490 82.687,218.822 82.945 C 219.146 83.195,219.397 83.975,219.380 84.677 C 219.363 85.380,219.483 85.872,219.646 85.772 C 220.023 85.539,220.526 87.072,220.230 87.551 C 220.108 87.748,220.285 88.139,220.623 88.419 C 220.960 88.699,221.144 89.169,221.031 89.464 C 220.918 89.759,220.974 90.000,221.157 90.000 C 221.340 90.000,221.403 90.450,221.298 91.000 C 221.193 91.550,221.288 92.000,221.511 92.000 C 221.733 92.000,222.022 92.279,222.153 92.621 C 222.309 93.029,222.222 93.156,221.895 92.991 C 221.623 92.853,221.670 92.979,222.000 93.270 C 222.330 93.562,222.591 94.160,222.579 94.600 C 222.567 95.040,222.688 95.760,222.846 96.200 C 223.005 96.640,223.267 97.360,223.429 97.800 C 223.590 98.240,223.741 98.780,223.763 99.000 C 223.785 99.220,224.027 99.792,224.300 100.271 C 224.574 100.750,224.689 101.425,224.556 101.771 C 224.421 102.121,224.521 102.400,224.781 102.400 C 225.037 102.400,225.136 102.580,225.000 102.800 C 224.864 103.020,224.925 103.200,225.137 103.200 C 225.348 103.200,225.483 103.740,225.437 104.400 C 225.392 105.060,225.510 105.600,225.701 105.600 C 225.891 105.600,225.933 105.784,225.794 106.010 C 225.655 106.235,225.776 106.370,226.065 106.310 C 226.397 106.240,226.607 106.640,226.639 107.400 C 226.666 108.060,226.737 108.735,226.795 108.900 C 226.853 109.065,226.929 109.335,226.964 109.500 C 226.999 109.665,227.261 110.219,227.545 110.731 C 227.829 111.243,227.952 111.949,227.817 112.299 C 227.683 112.649,227.750 113.045,227.966 113.179 C 228.182 113.313,228.426 114.073,228.508 114.868 C 228.589 115.663,228.972 116.629,229.359 117.016 C 229.746 117.403,229.977 118.044,229.873 118.441 C 229.770 118.838,229.930 119.486,230.230 119.881 C 230.529 120.277,230.780 120.969,230.787 121.420 C 230.794 121.871,231.025 122.482,231.300 122.779 C 231.690 123.199,231.691 123.256,231.305 123.038 C 230.972 122.850,230.888 122.963,231.047 123.379 C 231.178 123.721,231.429 124.000,231.605 124.000 C 231.781 124.000,231.831 124.361,231.715 124.802 C 231.600 125.243,231.744 125.891,232.035 126.242 C 232.327 126.594,232.601 127.088,232.646 127.340 C 233.105 129.956,233.296 130.619,233.624 130.734 C 233.833 130.808,233.898 131.041,233.768 131.252 C 233.638 131.463,233.711 131.852,233.930 132.118 C 234.266 132.524,234.721 134.256,234.897 135.800 C 234.922 136.020,235.163 136.420,235.432 136.689 C 235.702 136.959,235.885 137.712,235.840 138.364 C 235.795 139.016,235.888 139.470,236.046 139.371 C 236.371 139.170,236.972 141.344,237.139 143.324 C 237.173 143.722,237.380 143.936,237.600 143.800 C 237.989 143.559,238.040 143.755,238.204 146.140 C 238.247 146.767,238.511 147.422,238.792 147.595 C 239.073 147.769,239.174 148.119,239.017 148.373 C 238.860 148.627,239.035 149.299,239.407 149.867 C 239.779 150.434,239.892 150.780,239.658 150.636 C 239.425 150.492,239.482 150.851,239.785 151.435 C 240.088 152.019,240.269 152.840,240.189 153.259 C 240.108 153.678,240.207 153.919,240.409 153.794 C 240.859 153.516,241.378 155.389,241.014 155.977 C 240.870 156.210,240.954 156.400,241.200 156.400 C 241.446 156.400,241.545 156.565,241.420 156.768 C 241.295 156.970,241.477 157.419,241.824 157.767 C 242.208 158.151,242.355 158.711,242.200 159.199 C 242.049 159.677,242.128 160.000,242.397 160.000 C 242.644 160.000,242.736 160.180,242.600 160.400 C 242.464 160.620,242.554 160.800,242.800 160.800 C 243.046 160.800,243.144 160.968,243.017 161.172 C 242.891 161.377,242.953 161.647,243.156 161.773 C 243.359 161.898,243.431 162.361,243.316 162.800 C 243.199 163.247,243.304 163.600,243.553 163.600 C 243.799 163.600,244.000 164.194,244.000 164.920 C 244.000 165.646,244.174 166.414,244.387 166.627 C 244.601 166.841,244.889 167.732,245.028 168.607 C 245.166 169.483,245.397 170.290,245.540 170.400 C 246.061 170.800,246.746 173.275,246.508 173.895 C 246.346 174.317,246.422 174.434,246.732 174.242 C 247.252 173.920,247.276 173.985,247.398 176.070 C 247.445 176.879,247.790 177.847,248.164 178.221 C 248.538 178.595,248.814 179.283,248.778 179.751 C 248.666 181.186,248.783 181.658,249.190 181.406 C 249.426 181.260,249.527 181.790,249.446 182.749 C 249.372 183.621,249.464 184.574,249.650 184.867 C 249.921 185.295,249.994 185.282,250.019 184.800 C 250.037 184.467,250.218 184.618,250.426 185.138 C 250.633 185.653,250.724 186.504,250.629 187.028 C 250.522 187.617,250.636 187.947,250.926 187.891 C 251.213 187.835,251.396 188.345,251.398 189.200 C 251.399 189.970,251.526 190.695,251.680 190.811 C 251.833 190.927,252.043 191.917,252.144 193.011 C 252.246 194.105,252.345 195.096,252.365 195.213 C 252.442 195.677,254.400 195.564,254.406 195.096 C 254.410 194.771,254.546 194.807,254.800 195.200 C 255.013 195.530,255.208 195.620,255.234 195.400 C 255.484 193.214,255.564 192.334,255.662 190.676 C 255.725 189.618,255.988 188.576,256.247 188.361 C 256.506 188.146,256.625 187.616,256.511 187.183 C 256.398 186.750,256.529 186.127,256.802 185.798 C 257.075 185.469,257.158 185.200,256.987 185.200 C 256.816 185.200,256.978 184.866,257.348 184.458 C 257.725 184.041,257.909 183.428,257.767 183.058 C 257.622 182.679,257.712 182.400,257.981 182.400 C 258.237 182.400,258.344 182.232,258.217 182.028 C 258.091 181.823,258.149 181.555,258.347 181.433 C 258.546 181.310,258.829 180.402,258.977 179.414 C 259.125 178.427,259.400 177.524,259.588 177.408 C 259.776 177.292,259.880 176.747,259.820 176.198 C 259.759 175.649,259.895 175.200,260.122 175.200 C 260.348 175.200,260.413 175.080,260.266 174.932 C 260.119 174.785,260.263 174.372,260.586 174.015 C 260.910 173.657,261.219 172.788,261.272 172.082 C 261.326 171.377,261.491 170.800,261.638 170.800 C 261.786 170.800,262.001 170.440,262.116 169.999 C 262.231 169.559,262.164 169.298,261.967 169.420 C 261.557 169.674,261.912 168.578,262.623 167.400 C 262.888 166.960,263.067 166.203,263.021 165.719 C 262.974 165.234,263.086 164.929,263.268 165.042 C 263.451 165.155,263.600 165.057,263.600 164.824 C 263.600 164.117,263.613 164.064,264.185 162.442 C 264.490 161.579,264.633 160.766,264.503 160.636 C 264.373 160.506,264.438 160.400,264.648 160.400 C 264.858 160.400,265.074 159.822,265.128 159.116 C 265.182 158.409,265.415 157.714,265.647 157.571 C 265.880 157.427,266.129 156.671,266.201 155.891 C 266.274 155.111,266.528 154.108,266.767 153.662 C 267.005 153.217,267.200 152.406,267.200 151.860 C 267.200 151.314,267.399 150.800,267.642 150.719 C 267.886 150.638,268.155 149.967,268.241 149.228 C 268.327 148.489,268.590 147.653,268.825 147.369 C 269.061 147.086,269.286 146.230,269.327 145.467 C 269.367 144.705,269.535 144.163,269.700 144.264 C 269.865 144.365,270.000 144.167,270.000 143.824 C 270.000 143.481,270.001 143.110,270.001 143.001 C 270.002 142.891,270.351 141.886,270.776 140.767 C 271.201 139.648,271.462 138.506,271.356 138.230 C 271.250 137.954,271.442 137.497,271.782 137.215 C 272.122 136.933,272.400 136.184,272.400 135.551 C 272.400 134.918,272.550 134.400,272.733 134.400 C 273.080 134.400,273.116 134.261,273.327 132.068 C 273.398 131.336,273.623 130.616,273.828 130.468 C 274.033 130.321,274.260 129.750,274.333 129.200 C 274.406 128.650,274.721 127.801,275.033 127.314 C 275.345 126.827,275.600 125.781,275.600 124.990 C 275.600 124.006,275.745 123.643,276.062 123.838 C 276.354 124.019,276.415 123.948,276.227 123.644 C 276.064 123.381,276.142 122.911,276.400 122.600 C 276.658 122.289,276.746 121.836,276.595 121.592 C 276.445 121.349,276.637 120.801,277.023 120.375 C 277.566 119.774,277.598 119.599,277.162 119.594 C 276.741 119.589,276.723 119.510,277.090 119.277 C 277.359 119.105,277.640 118.573,277.713 118.093 C 277.786 117.613,277.958 117.108,278.095 116.971 C 278.233 116.834,278.237 116.440,278.104 116.095 C 277.964 115.730,278.031 115.572,278.265 115.717 C 278.500 115.862,278.667 115.460,278.667 114.747 C 278.667 114.078,278.874 113.401,279.128 113.245 C 279.382 113.088,279.649 112.429,279.722 111.780 C 279.795 111.131,280.061 110.219,280.314 109.753 C 280.566 109.287,280.665 108.798,280.535 108.668 C 280.404 108.538,280.686 107.605,281.160 106.596 C 281.635 105.586,281.925 104.602,281.805 104.408 C 281.685 104.214,281.773 103.940,282.000 103.800 C 282.227 103.660,282.309 103.377,282.183 103.172 C 282.056 102.968,282.163 102.800,282.419 102.800 C 282.676 102.800,282.784 102.536,282.660 102.213 C 282.536 101.890,282.591 101.529,282.782 101.411 C 282.973 101.293,283.083 100.886,283.027 100.507 C 282.972 100.127,283.168 99.575,283.463 99.280 C 283.758 98.984,284.000 98.336,284.000 97.838 C 284.000 97.340,284.125 96.808,284.278 96.655 C 284.598 96.336,284.815 95.394,284.865 94.107 C 284.884 93.617,285.147 93.010,285.450 92.759 C 285.752 92.507,286.000 91.626,286.000 90.800 C 286.000 89.953,286.262 89.081,286.600 88.800 C 286.930 88.526,287.200 87.885,287.200 87.375 C 287.200 86.865,287.380 86.336,287.600 86.200 C 287.820 86.064,288.000 85.265,288.000 84.425 C 288.000 83.550,288.258 82.684,288.605 82.396 C 288.938 82.119,289.187 81.692,289.158 81.447 C 289.009 80.183,289.245 78.780,289.572 78.983 C 289.777 79.109,290.075 79.002,290.234 78.745 C 290.428 78.431,290.349 78.384,289.994 78.604 C 289.594 78.851,289.539 78.744,289.771 78.166 C 289.939 77.745,290.136 77.130,290.208 76.800 C 290.280 76.470,290.374 76.110,290.417 76.000 C 290.460 75.890,290.473 75.665,290.447 75.500 C 290.421 75.335,290.563 75.200,290.763 75.200 C 290.962 75.200,291.029 74.832,290.911 74.382 C 290.776 73.866,290.975 73.337,291.449 72.952 C 291.862 72.616,291.930 72.475,291.600 72.639 C 291.207 72.834,291.268 72.633,291.775 72.054 C 292.382 71.362,292.556 70.545,292.575 68.285 L 292.600 65.400 253.769 65.298 C 232.411 65.242,214.816 65.317,214.669 65.465 M111.000 66.000 C 83.940 66.113,65.895 66.249,70.900 66.302 C 79.701 66.397,80.000 66.426,80.000 67.200 C 80.000 67.644,79.733 68.000,79.400 68.000 C 79.070 68.000,78.800 67.711,78.800 67.357 C 78.800 66.935,78.582 66.798,78.167 66.957 C 77.819 67.091,77.369 67.200,77.167 67.200 C 76.965 67.200,76.800 67.380,76.800 67.600 C 76.800 67.820,77.250 68.000,77.800 68.000 C 78.422 68.000,78.800 68.227,78.800 68.600 C 78.800 68.930,79.070 69.200,79.400 69.200 C 79.853 69.200,80.000 69.689,80.000 71.200 C 80.000 72.300,79.820 73.200,79.600 73.200 C 79.380 73.200,79.200 73.650,79.200 74.200 C 79.200 74.750,79.380 75.200,79.600 75.200 C 79.820 75.200,80.000 75.470,80.000 75.800 C 80.000 76.130,79.820 76.400,79.600 76.400 C 79.380 76.400,79.200 76.670,79.200 77.000 C 79.200 77.330,79.380 77.600,79.600 77.600 C 79.820 77.600,80.000 77.330,80.000 77.000 C 80.000 76.670,80.193 76.400,80.429 76.400 C 80.664 76.400,81.127 76.130,81.457 75.800 C 81.787 75.470,82.314 75.200,82.629 75.200 C 82.943 75.200,83.200 75.470,83.200 75.800 C 83.200 76.130,82.930 76.400,82.600 76.400 C 82.270 76.400,82.000 76.568,82.000 76.773 C 82.000 76.978,81.595 77.272,81.100 77.427 C 80.605 77.581,80.051 77.909,79.870 78.154 C 79.631 78.476,79.482 78.460,79.336 78.100 C 79.095 77.506,78.000 77.424,78.000 78.000 C 78.000 78.220,77.730 78.400,77.400 78.400 C 77.027 78.400,76.800 78.778,76.800 79.400 C 76.800 80.200,76.600 80.400,75.800 80.400 C 74.956 80.400,74.800 80.587,74.800 81.600 C 74.800 82.260,74.993 82.800,75.229 82.800 C 75.782 82.800,76.800 83.818,76.800 84.371 C 76.800 84.607,77.250 84.800,77.800 84.800 C 78.422 84.800,78.800 84.573,78.800 84.200 C 78.800 83.870,79.070 83.600,79.400 83.600 C 79.730 83.600,80.000 83.870,80.000 84.200 C 80.000 84.530,79.820 84.800,79.600 84.800 C 79.380 84.800,79.200 84.980,79.200 85.200 C 79.200 85.420,79.650 85.600,80.200 85.600 C 80.822 85.600,81.200 85.827,81.200 86.200 C 81.200 86.633,80.756 86.800,79.600 86.800 C 78.160 86.800,78.000 86.900,78.000 87.800 C 78.000 88.600,78.200 88.800,79.000 88.800 C 79.622 88.800,80.000 89.027,80.000 89.400 C 80.000 89.730,79.820 90.000,79.600 90.000 C 79.380 90.000,79.200 90.450,79.200 91.000 C 79.200 91.622,78.973 92.000,78.600 92.000 C 78.270 92.000,78.000 91.730,78.000 91.400 C 78.000 91.070,77.730 90.800,77.400 90.800 C 77.070 90.800,76.800 91.070,76.800 91.400 C 76.800 91.730,77.070 92.000,77.400 92.000 C 77.730 92.000,78.000 92.270,78.000 92.600 C 78.000 92.930,78.255 93.200,78.567 93.200 C 78.878 93.200,79.238 93.425,79.367 93.700 C 79.553 94.100,79.647 94.100,79.833 93.700 C 80.403 92.479,82.000 93.142,82.000 94.600 C 82.000 95.370,81.820 96.000,81.600 96.000 C 81.380 96.000,81.200 96.270,81.200 96.600 C 81.200 96.930,80.930 97.200,80.600 97.200 C 80.270 97.200,80.000 97.470,80.000 97.800 C 80.000 98.130,79.743 98.400,79.429 98.400 C 79.114 98.400,78.587 98.130,78.257 97.800 C 77.478 97.021,76.000 97.021,76.000 97.800 C 76.000 98.173,76.378 98.400,77.000 98.400 C 77.550 98.400,78.000 98.580,78.000 98.800 C 78.000 99.020,78.270 99.200,78.600 99.200 C 78.973 99.200,79.200 99.578,79.200 100.200 C 79.200 100.822,78.973 101.200,78.600 101.200 C 78.270 101.200,78.000 101.470,78.000 101.800 C 78.000 102.130,77.730 102.400,77.400 102.400 C 77.070 102.400,76.800 102.670,76.800 103.000 C 76.800 103.330,77.070 103.600,77.400 103.600 C 77.730 103.600,78.000 103.780,78.000 104.000 C 78.000 104.220,78.450 104.400,79.000 104.400 C 79.800 104.400,80.000 104.600,80.000 105.400 C 80.000 105.950,79.820 106.400,79.600 106.400 C 79.380 106.400,79.200 106.220,79.200 106.000 C 79.200 105.780,78.930 105.600,78.600 105.600 C 78.270 105.600,78.000 105.330,78.000 105.000 C 78.000 104.670,77.730 104.400,77.400 104.400 C 77.070 104.400,76.800 104.670,76.800 105.000 C 76.800 105.330,77.070 105.600,77.400 105.600 C 77.773 105.600,78.000 105.978,78.000 106.600 C 78.000 107.533,78.133 107.600,80.000 107.600 C 81.100 107.600,82.000 107.780,82.000 108.000 C 82.000 108.220,82.270 108.400,82.600 108.400 C 82.930 108.400,83.200 108.670,83.200 109.000 C 83.200 109.373,82.822 109.600,82.200 109.600 C 81.650 109.600,81.200 109.420,81.200 109.200 C 81.200 108.618,80.432 108.710,79.771 109.371 C 79.110 110.032,79.018 110.800,79.600 110.800 C 80.181 110.800,80.092 112.696,79.500 112.935 C 79.225 113.046,82.060 113.190,85.800 113.255 C 89.540 113.319,93.590 113.405,94.800 113.445 C 96.010 113.484,108.070 113.646,121.600 113.805 C 141.679 114.040,146.281 114.193,146.640 114.640 C 146.881 114.941,147.196 115.070,147.340 114.927 C 147.483 114.784,147.613 115.102,147.630 115.633 C 147.677 117.168,147.959 118.360,148.551 119.521 C 148.853 120.115,149.409 121.680,149.788 123.000 C 150.166 124.320,150.618 125.580,150.792 125.800 C 151.044 126.120,151.470 127.564,151.794 129.200 C 151.967 130.071,152.982 132.698,153.301 133.100 C 153.519 133.375,153.564 133.600,153.400 133.600 C 153.236 133.600,153.303 133.842,153.548 134.137 C 153.793 134.432,153.875 134.792,153.730 134.937 C 153.585 135.082,153.687 135.200,153.957 135.200 C 154.227 135.200,154.345 135.365,154.221 135.566 C 154.096 135.768,154.154 136.353,154.349 136.866 C 154.544 137.380,154.681 137.907,154.652 138.039 C 154.623 138.170,154.814 138.535,155.076 138.851 C 155.338 139.167,155.647 139.945,155.762 140.580 C 155.877 141.215,156.203 141.882,156.486 142.061 C 156.769 142.241,156.882 142.391,156.739 142.394 C 156.441 142.401,157.923 147.590,158.397 148.200 C 158.744 148.647,159.394 151.235,159.276 151.700 C 159.234 151.865,159.380 152.000,159.600 152.000 C 159.820 152.000,159.966 152.135,159.924 152.300 C 159.740 153.025,160.503 155.183,160.865 154.960 C 161.085 154.824,161.230 155.047,161.186 155.456 C 161.143 155.865,161.151 156.335,161.204 156.500 C 161.257 156.665,161.345 156.980,161.400 157.200 C 161.455 157.420,161.545 157.690,161.600 157.800 C 161.655 157.910,161.733 158.135,161.773 158.300 C 161.813 158.465,161.985 159.187,162.155 159.903 C 162.326 160.620,162.630 161.105,162.833 160.980 C 163.035 160.855,163.214 161.168,163.231 161.676 C 163.283 163.268,165.542 170.096,166.094 170.334 C 166.265 170.408,166.298 170.641,166.168 170.852 C 166.038 171.063,166.106 171.452,166.319 171.718 C 166.533 171.983,166.830 172.830,166.979 173.600 C 167.248 174.989,167.537 175.890,168.456 178.200 C 168.718 178.860,168.971 179.535,169.016 179.700 C 169.062 179.865,169.145 180.090,169.200 180.200 C 169.255 180.310,169.333 180.535,169.373 180.700 C 169.413 180.865,169.585 181.587,169.755 182.303 C 169.926 183.020,170.215 183.515,170.397 183.402 C 170.580 183.289,170.679 183.512,170.617 183.898 C 170.555 184.284,170.613 184.780,170.746 185.000 C 170.879 185.220,171.013 185.535,171.044 185.700 C 171.075 185.865,171.136 186.045,171.181 186.100 C 171.225 186.155,171.334 186.470,171.423 186.800 C 171.842 188.361,173.627 193.468,173.943 194.013 C 174.348 194.713,174.991 197.249,174.876 197.700 C 174.834 197.865,174.980 198.000,175.200 198.000 C 175.420 198.000,175.566 198.135,175.524 198.300 C 175.340 199.025,176.103 201.183,176.465 200.960 C 176.685 200.824,176.830 201.047,176.786 201.456 C 176.743 201.865,176.751 202.335,176.804 202.500 C 177.000 203.113,177.101 203.617,177.150 204.224 C 177.178 204.567,177.378 204.737,177.595 204.603 C 177.813 204.468,177.896 204.607,177.779 204.910 C 177.663 205.214,177.785 205.988,178.050 206.631 C 178.316 207.274,178.571 207.935,178.616 208.100 C 178.662 208.265,178.736 208.445,178.781 208.500 C 178.825 208.555,178.927 208.870,179.007 209.200 C 179.247 210.190,181.213 215.711,181.784 217.000 C 182.076 217.660,182.436 218.830,182.583 219.600 C 182.848 220.988,183.134 221.883,184.056 224.200 C 184.318 224.860,184.552 225.490,184.576 225.600 C 184.971 227.432,185.772 229.541,186.015 229.391 C 186.188 229.284,186.279 229.512,186.216 229.898 C 186.154 230.284,186.244 230.780,186.417 231.000 C 186.590 231.220,186.747 231.535,186.766 231.700 C 186.785 231.865,186.814 232.045,186.831 232.100 C 186.847 232.155,186.927 232.470,187.007 232.800 C 187.304 234.020,189.205 239.420,189.546 240.013 C 189.950 240.716,190.590 243.252,190.476 243.700 C 190.434 243.865,190.542 244.000,190.715 244.000 C 190.888 244.000,191.054 244.315,191.084 244.700 C 191.115 245.085,191.363 245.940,191.636 246.600 C 191.909 247.260,192.171 247.935,192.216 248.100 C 192.262 248.265,192.336 248.445,192.381 248.500 C 192.425 248.555,192.520 248.904,192.592 249.276 C 192.777 250.238,193.660 252.926,193.946 253.400 C 194.079 253.620,194.213 253.935,194.244 254.100 C 194.275 254.265,194.336 254.445,194.381 254.500 C 194.425 254.555,194.527 254.870,194.607 255.200 C 194.837 256.146,196.799 261.715,197.214 262.600 C 197.421 263.040,197.845 264.390,198.157 265.600 C 198.669 267.588,199.165 269.094,199.872 270.800 C 200.009 271.130,200.166 271.614,200.222 271.876 C 200.481 273.102,201.344 275.450,201.701 275.900 C 201.919 276.175,201.964 276.400,201.800 276.400 C 201.636 276.400,201.726 276.670,202.000 277.000 C 202.274 277.330,202.389 277.600,202.255 277.600 C 202.121 277.600,202.388 278.545,202.849 279.700 C 203.309 280.855,203.955 282.700,204.283 283.800 C 204.612 284.900,205.022 285.980,205.195 286.200 C 205.445 286.520,205.872 287.971,206.194 289.600 C 206.367 290.471,207.382 293.098,207.701 293.500 C 207.919 293.775,207.964 294.000,207.800 294.000 C 207.636 294.000,207.726 294.270,208.000 294.600 C 208.274 294.930,208.394 295.200,208.267 295.200 C 208.061 295.200,208.788 297.614,209.472 299.200 C 209.614 299.530,209.769 299.935,209.815 300.100 C 209.862 300.265,209.936 300.445,209.981 300.500 C 210.025 300.555,210.123 300.870,210.199 301.200 C 210.391 302.031,212.347 307.623,212.788 308.600 C 213.210 309.532,213.581 310.804,213.824 312.143 C 213.919 312.666,214.301 313.792,214.674 314.647 C 215.047 315.501,215.385 316.335,215.426 316.500 C 215.467 316.665,215.536 316.845,215.581 316.900 C 215.625 316.955,215.720 317.304,215.792 317.676 C 216.045 318.988,216.909 321.406,217.301 321.900 C 217.519 322.175,217.564 322.400,217.400 322.400 C 217.236 322.400,217.326 322.670,217.600 323.000 C 217.874 323.330,217.989 323.600,217.855 323.600 C 217.721 323.600,217.988 324.545,218.449 325.700 C 218.909 326.855,219.555 328.700,219.883 329.800 C 220.212 330.900,220.618 331.980,220.786 332.200 C 221.135 332.660,221.762 334.857,221.668 335.293 C 221.525 335.955,224.728 336.016,254.544 335.910 L 285.689 335.800 286.630 333.200 C 287.148 331.770,287.578 330.555,287.586 330.500 C 287.643 330.095,287.860 329.421,288.132 328.800 C 288.963 326.907,290.693 321.226,290.498 321.031 C 290.371 320.904,290.477 320.800,290.733 320.800 C 290.990 320.800,291.200 320.478,291.200 320.083 C 291.200 319.689,292.071 316.944,293.135 313.983 C 294.199 311.023,295.750 306.530,296.582 304.000 C 297.414 301.470,298.899 297.110,299.881 294.311 C 300.864 291.512,301.702 288.992,301.745 288.711 C 301.788 288.430,301.929 288.020,302.059 287.800 C 302.304 287.385,303.203 284.709,303.377 283.876 C 303.432 283.614,303.698 282.860,303.969 282.200 C 304.239 281.540,304.485 280.685,304.516 280.300 C 304.546 279.915,304.689 279.600,304.834 279.600 C 304.979 279.600,305.219 278.844,305.366 277.920 C 305.514 276.996,305.782 276.051,305.961 275.820 C 306.317 275.361,312.000 259.061,312.000 258.499 C 312.000 258.308,312.816 255.913,313.813 253.176 C 314.811 250.439,315.671 247.930,315.725 247.600 C 315.779 247.270,315.929 246.820,316.059 246.600 C 316.304 246.184,317.203 243.508,317.377 242.676 C 317.432 242.414,317.698 241.660,317.969 241.000 C 318.239 240.340,318.485 239.485,318.516 239.100 C 318.546 238.715,318.712 238.400,318.885 238.400 C 319.058 238.400,319.200 238.130,319.200 237.800 C 319.200 237.470,320.559 233.285,322.220 228.500 C 323.882 223.715,325.405 219.260,325.606 218.600 C 325.806 217.940,326.802 215.020,327.819 212.111 C 328.836 209.202,329.702 206.592,329.745 206.311 C 329.788 206.030,329.929 205.620,330.059 205.400 C 330.315 204.967,331.221 202.250,331.368 201.476 C 331.418 201.214,331.760 200.303,332.129 199.451 C 332.498 198.599,332.800 197.692,332.800 197.435 C 332.800 197.177,333.671 194.544,334.735 191.583 C 335.799 188.623,337.440 183.860,338.381 181.000 C 339.321 178.140,340.891 173.545,341.868 170.789 C 342.845 168.032,343.685 165.512,343.734 165.189 C 343.783 164.865,343.929 164.420,344.059 164.200 C 344.315 163.767,345.221 161.050,345.368 160.276 C 345.418 160.014,345.760 159.103,346.129 158.251 C 346.498 157.399,346.800 156.489,346.800 156.227 C 346.800 155.966,347.616 153.513,348.613 150.776 C 349.611 148.039,350.483 145.530,350.552 145.200 C 350.621 144.870,350.857 144.150,351.075 143.600 C 351.294 143.050,352.063 140.800,352.785 138.600 C 353.507 136.400,354.895 132.345,355.871 129.589 C 356.847 126.832,357.685 124.312,357.734 123.989 C 357.783 123.665,357.929 123.220,358.059 123.000 C 358.315 122.567,359.221 119.850,359.368 119.076 C 359.418 118.814,359.760 117.903,360.129 117.051 C 360.498 116.199,360.800 115.289,360.800 115.027 C 360.800 114.766,361.616 112.313,362.613 109.576 C 363.611 106.839,364.483 104.330,364.552 104.000 C 364.621 103.670,364.857 102.950,365.075 102.400 C 365.294 101.850,366.063 99.600,366.785 97.400 C 367.507 95.200,368.895 91.145,369.871 88.389 C 370.847 85.632,371.685 83.112,371.734 82.789 C 371.783 82.465,371.929 82.020,372.059 81.800 C 372.315 81.367,373.221 78.650,373.368 77.876 C 373.418 77.614,373.760 76.703,374.129 75.851 C 374.498 74.999,374.800 74.076,374.800 73.799 C 374.800 73.522,375.231 72.149,375.759 70.748 C 376.286 69.346,376.781 67.660,376.859 67.000 L 377.000 65.800 347.800 65.705 C 331.740 65.652,318.409 65.742,318.175 65.905 C 317.941 66.067,316.972 68.630,316.022 71.600 C 315.073 74.570,313.798 78.530,313.191 80.400 C 312.118 83.702,310.770 87.917,307.883 97.000 C 304.469 107.742,301.833 116.016,299.407 123.600 C 298.668 125.910,297.223 130.500,296.195 133.800 C 295.167 137.100,294.171 140.160,293.980 140.600 C 293.790 141.040,293.166 143.020,292.594 145.000 C 292.022 146.980,291.392 148.960,291.194 149.400 C 290.996 149.840,290.366 151.820,289.794 153.800 C 289.222 155.780,288.592 157.760,288.394 158.200 C 288.196 158.640,287.566 160.620,286.994 162.600 C 286.422 164.580,285.785 166.560,285.578 167.000 C 285.371 167.440,285.151 168.160,285.089 168.600 C 285.027 169.040,284.869 169.580,284.737 169.800 C 284.606 170.020,284.199 171.280,283.834 172.600 C 283.468 173.920,282.997 175.360,282.785 175.800 C 282.574 176.240,282.351 176.960,282.289 177.400 C 282.227 177.840,282.069 178.380,281.937 178.600 C 281.806 178.820,281.399 180.080,281.034 181.400 C 280.668 182.720,280.197 184.160,279.985 184.600 C 279.774 185.040,279.551 185.760,279.489 186.200 C 279.427 186.640,279.269 187.180,279.137 187.400 C 279.006 187.620,278.599 188.880,278.234 190.200 C 277.868 191.520,277.397 192.960,277.185 193.400 C 276.974 193.840,276.751 194.560,276.689 195.000 C 276.627 195.440,276.469 195.980,276.337 196.200 C 276.206 196.420,275.799 197.680,275.434 199.000 C 275.068 200.320,274.597 201.760,274.385 202.200 C 274.174 202.640,273.951 203.360,273.889 203.800 C 273.827 204.240,273.669 204.780,273.537 205.000 C 273.406 205.220,272.999 206.480,272.634 207.800 C 272.268 209.120,271.797 210.560,271.585 211.000 C 271.374 211.440,271.151 212.160,271.089 212.600 C 271.027 213.040,270.867 213.580,270.733 213.800 C 270.598 214.020,270.098 215.640,269.621 217.400 C 269.144 219.160,268.697 220.780,268.628 221.000 C 268.559 221.220,268.464 221.580,268.417 221.800 C 268.370 222.020,268.187 222.380,268.009 222.600 C 267.689 222.996,266.083 228.450,265.757 230.246 C 265.664 230.759,265.415 231.634,265.204 232.190 C 264.993 232.745,264.927 233.200,265.059 233.200 C 265.190 233.200,265.074 233.470,264.800 233.800 C 264.526 234.130,264.404 234.400,264.529 234.400 C 264.655 234.400,264.418 235.384,264.005 236.587 C 263.591 237.789,263.159 239.274,263.045 239.887 C 262.932 240.499,262.550 242.080,262.197 243.400 C 261.845 244.720,261.402 246.430,261.212 247.200 C 260.602 249.683,260.393 250.479,259.686 253.000 C 259.178 254.813,258.983 255.684,258.388 258.800 C 258.157 260.010,257.795 261.450,257.583 262.000 C 257.371 262.550,257.118 263.540,257.022 264.200 C 256.925 264.860,256.659 266.120,256.430 267.000 C 256.201 267.880,255.731 270.220,255.385 272.200 C 255.039 274.180,254.544 276.520,254.285 277.400 L 253.814 279.000 253.545 277.600 C 253.397 276.830,253.182 275.840,253.066 275.400 C 252.951 274.960,252.369 272.440,251.773 269.800 C 249.711 260.673,249.874 261.353,247.210 250.800 C 246.071 246.290,245.074 242.330,244.993 242.000 C 244.913 241.670,244.550 240.320,244.188 239.000 C 243.825 237.680,243.468 236.330,243.395 236.000 C 243.321 235.670,243.234 235.400,243.201 235.400 C 243.168 235.400,243.062 234.950,242.965 234.400 C 242.869 233.850,242.523 232.725,242.198 231.900 C 241.873 231.075,241.700 230.400,241.814 230.400 C 241.927 230.400,241.753 229.883,241.426 229.251 C 241.099 228.619,240.933 228.001,241.056 227.877 C 241.179 227.754,241.132 227.416,240.950 227.127 C 240.769 226.837,240.559 226.154,240.484 225.610 C 240.410 225.065,240.182 224.419,239.978 224.173 C 239.774 223.927,239.725 223.608,239.870 223.463 C 240.015 223.318,239.951 223.200,239.728 223.200 C 239.504 223.200,239.306 222.648,239.287 221.972 C 239.268 221.297,239.080 220.532,238.871 220.272 C 238.661 220.013,238.106 218.360,237.637 216.600 C 237.168 214.840,236.623 213.040,236.426 212.600 C 236.228 212.160,235.321 209.370,234.408 206.400 C 233.496 203.430,232.252 199.470,231.644 197.600 C 231.036 195.730,229.944 192.310,229.218 190.000 C 225.950 179.605,225.436 178.006,224.351 174.859 C 223.718 173.022,223.200 171.279,223.200 170.985 C 223.200 170.692,222.990 169.945,222.734 169.326 C 222.477 168.707,222.249 168.110,222.227 168.000 C 222.206 167.890,222.078 167.620,221.944 167.400 C 221.809 167.180,221.388 165.740,221.008 164.200 C 220.628 162.660,220.204 161.220,220.065 161.000 C 219.926 160.780,219.794 160.510,219.772 160.400 C 219.749 160.290,219.625 159.930,219.496 159.600 C 218.934 158.165,218.242 155.776,218.313 155.514 C 218.356 155.357,218.185 154.727,217.934 154.114 C 217.683 153.501,217.412 152.640,217.331 152.200 C 217.250 151.760,216.885 150.770,216.520 150.000 C 216.154 149.230,215.876 148.285,215.903 147.900 C 215.929 147.515,215.762 147.200,215.532 147.200 C 215.302 147.200,215.211 146.948,215.330 146.639 C 215.448 146.331,215.430 145.964,215.291 145.824 C 215.151 145.684,214.979 145.138,214.908 144.611 C 214.837 144.084,214.515 143.145,214.192 142.526 C 213.869 141.907,213.604 141.006,213.602 140.524 C 213.601 140.042,213.417 139.534,213.193 139.396 C 212.970 139.258,212.891 138.977,213.017 138.772 C 213.144 138.568,213.084 138.400,212.884 138.400 C 212.685 138.400,212.506 137.848,212.487 137.172 C 212.468 136.497,212.278 135.732,212.065 135.472 C 211.650 134.966,210.963 132.765,210.231 129.600 C 210.053 128.830,209.780 128.020,209.624 127.800 C 209.354 127.419,208.371 124.380,208.164 123.284 C 208.110 123.000,207.632 121.470,207.101 119.884 C 206.570 118.298,205.543 115.110,204.819 112.800 C 204.096 110.490,203.014 107.070,202.416 105.200 C 201.818 103.330,200.827 100.222,200.214 98.293 C 199.601 96.364,198.950 94.693,198.767 94.580 C 198.584 94.467,198.530 94.127,198.646 93.826 C 198.761 93.524,198.402 92.134,197.847 90.738 C 197.291 89.342,196.639 87.303,196.396 86.206 C 196.153 85.110,195.650 83.864,195.277 83.438 C 194.771 82.858,194.751 82.749,195.200 83.008 C 195.674 83.281,195.710 83.233,195.372 82.777 C 194.943 82.199,194.258 80.047,193.789 77.800 C 193.651 77.140,193.237 76.254,192.869 75.831 C 192.358 75.245,192.342 75.144,192.800 75.408 C 193.275 75.682,193.310 75.633,192.970 75.177 C 192.505 74.553,191.411 71.181,191.523 70.714 C 191.560 70.557,191.385 69.927,191.134 69.314 C 190.883 68.701,190.613 67.840,190.534 67.400 C 190.455 66.960,190.308 66.375,190.208 66.100 C 190.065 65.710,186.750 65.621,175.113 65.698 C 166.911 65.751,138.060 65.887,111.000 66.000 M58.307 66.290 C 59.026 66.379,60.106 66.377,60.707 66.286 C 61.308 66.195,60.720 66.122,59.400 66.124 C 58.080 66.126,57.588 66.201,58.307 66.290 M85.200 66.800 C 85.200 67.020,84.480 67.200,83.600 67.200 C 82.720 67.200,82.000 67.020,82.000 66.800 C 82.000 66.580,82.720 66.400,83.600 66.400 C 84.480 66.400,85.200 66.580,85.200 66.800 M10.400 200.800 C 10.400 274.500,10.535 334.800,10.700 334.800 C 10.865 334.800,11.000 274.500,11.000 200.800 C 11.000 127.100,10.865 66.800,10.700 66.800 C 10.535 66.800,10.400 127.100,10.400 200.800 M82.000 68.600 C 82.000 68.973,81.622 69.200,81.000 69.200 C 80.378 69.200,80.000 68.973,80.000 68.600 C 80.000 68.227,80.378 68.000,81.000 68.000 C 81.622 68.000,82.000 68.227,82.000 68.600 M74.800 69.800 C 74.800 70.130,75.070 70.400,75.400 70.400 C 75.730 70.400,76.000 70.130,76.000 69.800 C 76.000 69.470,75.730 69.200,75.400 69.200 C 75.070 69.200,74.800 69.470,74.800 69.800 M76.800 69.800 C 76.800 70.130,77.070 70.400,77.400 70.400 C 77.730 70.400,78.000 70.130,78.000 69.800 C 78.000 69.470,77.730 69.200,77.400 69.200 C 77.070 69.200,76.800 69.470,76.800 69.800 M84.400 70.600 C 84.400 71.000,84.000 71.200,83.200 71.200 C 82.400 71.200,82.000 71.000,82.000 70.600 C 82.000 70.200,82.400 70.000,83.200 70.000 C 84.000 70.000,84.400 70.200,84.400 70.600 M87.200 71.800 C 87.200 72.173,86.822 72.400,86.200 72.400 C 85.578 72.400,85.200 72.173,85.200 71.800 C 85.200 71.427,85.578 71.200,86.200 71.200 C 86.822 71.200,87.200 71.427,87.200 71.800 M73.600 72.600 C 73.600 72.930,73.870 73.200,74.200 73.200 C 74.530 73.200,74.800 73.470,74.800 73.800 C 74.800 74.130,75.070 74.400,75.400 74.400 C 75.730 74.400,76.000 74.130,76.000 73.800 C 76.000 73.470,75.730 73.200,75.400 73.200 C 75.070 73.200,74.800 72.930,74.800 72.600 C 74.800 72.270,74.530 72.000,74.200 72.000 C 73.870 72.000,73.600 72.270,73.600 72.600 M78.000 72.600 C 78.000 72.930,77.730 73.200,77.400 73.200 C 77.070 73.200,76.800 73.470,76.800 73.800 C 76.800 74.130,77.070 74.400,77.400 74.400 C 77.730 74.400,78.000 74.130,78.000 73.800 C 78.000 73.470,78.270 73.200,78.600 73.200 C 78.930 73.200,79.200 72.930,79.200 72.600 C 79.200 72.270,78.930 72.000,78.600 72.000 C 78.270 72.000,78.000 72.270,78.000 72.600 M83.200 73.800 C 83.200 74.173,82.822 74.400,82.200 74.400 C 81.578 74.400,81.200 74.173,81.200 73.800 C 81.200 73.427,81.578 73.200,82.200 73.200 C 82.822 73.200,83.200 73.427,83.200 73.800 M73.600 78.000 C 73.600 79.156,73.767 79.600,74.200 79.600 C 74.633 79.600,74.800 79.156,74.800 78.000 C 74.800 76.844,74.633 76.400,74.200 76.400 C 73.767 76.400,73.600 76.844,73.600 78.000 M76.000 77.000 C 76.000 77.373,76.378 77.600,77.000 77.600 C 77.622 77.600,78.000 77.373,78.000 77.000 C 78.000 76.627,77.622 76.400,77.000 76.400 C 76.378 76.400,76.000 76.627,76.000 77.000 M83.200 79.000 C 83.200 79.330,83.470 79.600,83.800 79.600 C 84.130 79.600,84.400 79.884,84.400 80.232 C 84.400 80.726,84.138 80.806,83.200 80.600 C 82.069 80.352,82.000 80.408,82.000 81.568 C 82.000 82.615,81.850 82.800,81.000 82.800 C 80.450 82.800,80.000 82.596,80.000 82.346 C 80.000 82.096,79.550 81.475,79.000 80.965 C 78.450 80.455,78.000 79.940,78.000 79.819 C 78.000 79.380,79.140 79.614,79.367 80.100 C 79.553 80.500,79.647 80.500,79.833 80.100 C 79.962 79.825,80.322 79.600,80.633 79.600 C 80.945 79.600,81.200 79.330,81.200 79.000 C 81.200 78.627,81.578 78.400,82.200 78.400 C 82.822 78.400,83.200 78.627,83.200 79.000 M71.600 81.000 C 71.600 81.373,71.978 81.600,72.600 81.600 C 73.222 81.600,73.600 81.373,73.600 81.000 C 73.600 80.627,73.222 80.400,72.600 80.400 C 71.978 80.400,71.600 80.627,71.600 81.000 M87.200 81.000 C 87.200 81.373,86.822 81.600,86.200 81.600 C 85.578 81.600,85.200 81.373,85.200 81.000 C 85.200 80.627,85.578 80.400,86.200 80.400 C 86.822 80.400,87.200 80.627,87.200 81.000 M78.800 82.200 C 78.800 82.619,78.378 82.800,77.400 82.800 C 76.422 82.800,76.000 82.619,76.000 82.200 C 76.000 81.781,76.422 81.600,77.400 81.600 C 78.378 81.600,78.800 81.781,78.800 82.200 M73.600 84.200 C 73.600 84.530,73.870 84.800,74.200 84.800 C 74.530 84.800,74.800 84.530,74.800 84.200 C 74.800 83.870,74.530 83.600,74.200 83.600 C 73.870 83.600,73.600 83.870,73.600 84.200 M76.000 87.400 C 76.000 87.730,76.180 88.000,76.400 88.000 C 76.620 88.000,76.800 87.730,76.800 87.400 C 76.800 87.070,76.620 86.800,76.400 86.800 C 76.180 86.800,76.000 87.070,76.000 87.400 M83.200 88.200 C 83.200 88.573,82.822 88.800,82.200 88.800 C 81.578 88.800,81.200 88.573,81.200 88.200 C 81.200 87.827,81.578 87.600,82.200 87.600 C 82.822 87.600,83.200 87.827,83.200 88.200 M74.800 89.400 C 74.800 89.730,75.070 90.000,75.400 90.000 C 75.730 90.000,76.000 89.730,76.000 89.400 C 76.000 89.070,75.730 88.800,75.400 88.800 C 75.070 88.800,74.800 89.070,74.800 89.400 M72.800 90.600 C 72.800 90.930,73.070 91.200,73.400 91.200 C 73.730 91.200,74.000 90.930,74.000 90.600 C 74.000 90.270,73.730 90.000,73.400 90.000 C 73.070 90.000,72.800 90.270,72.800 90.600 M72.800 93.400 C 72.800 93.730,73.070 94.000,73.400 94.000 C 73.730 94.000,74.000 93.730,74.000 93.400 C 74.000 93.070,73.730 92.800,73.400 92.800 C 73.070 92.800,72.800 93.070,72.800 93.400 M76.800 94.200 C 76.800 94.750,76.620 95.200,76.400 95.200 C 76.180 95.200,76.000 95.380,76.000 95.600 C 76.000 95.820,76.270 96.000,76.600 96.000 C 76.930 96.000,77.200 95.820,77.200 95.600 C 77.200 95.380,77.560 95.200,78.000 95.200 C 78.587 95.200,78.800 95.467,78.800 96.200 C 78.800 96.822,79.027 97.200,79.400 97.200 C 79.773 97.200,80.000 96.822,80.000 96.200 C 80.000 95.650,79.820 95.200,79.600 95.200 C 79.380 95.200,79.200 94.930,79.200 94.600 C 79.200 94.270,78.930 94.000,78.600 94.000 C 78.270 94.000,78.000 93.820,78.000 93.600 C 78.000 93.380,77.730 93.200,77.400 93.200 C 77.027 93.200,76.800 93.578,76.800 94.200 M84.400 96.600 C 84.400 96.973,84.022 97.200,83.400 97.200 C 82.778 97.200,82.400 96.973,82.400 96.600 C 82.400 96.227,82.778 96.000,83.400 96.000 C 84.022 96.000,84.400 96.227,84.400 96.600 M76.800 99.800 C 76.800 100.130,77.070 100.400,77.400 100.400 C 77.730 100.400,78.000 100.130,78.000 99.800 C 78.000 99.470,77.730 99.200,77.400 99.200 C 77.070 99.200,76.800 99.470,76.800 99.800 M84.400 100.200 C 84.400 101.044,84.213 101.200,83.200 101.200 C 82.187 101.200,82.000 101.044,82.000 100.200 C 82.000 99.356,82.187 99.200,83.200 99.200 C 84.213 99.200,84.400 99.356,84.400 100.200 M80.000 103.000 C 80.000 103.330,79.730 103.600,79.400 103.600 C 79.070 103.600,78.800 103.330,78.800 103.000 C 78.800 102.670,79.070 102.400,79.400 102.400 C 79.730 102.400,80.000 102.670,80.000 103.000 M84.400 103.400 C 84.400 104.200,84.600 104.400,85.400 104.400 C 86.022 104.400,86.400 104.627,86.400 105.000 C 86.400 105.373,86.022 105.600,85.400 105.600 C 84.778 105.600,84.400 105.373,84.400 105.000 C 84.400 104.600,84.000 104.400,83.200 104.400 C 82.187 104.400,82.000 104.244,82.000 103.400 C 82.000 102.556,82.187 102.400,83.200 102.400 C 84.213 102.400,84.400 102.556,84.400 103.400 M74.800 109.000 C 74.800 109.330,75.070 109.600,75.400 109.600 C 75.730 109.600,76.000 109.330,76.000 109.000 C 76.000 108.670,75.730 108.400,75.400 108.400 C 75.070 108.400,74.800 108.670,74.800 109.000 M77.200 109.000 C 77.200 109.333,77.556 109.600,78.000 109.600 C 78.954 109.600,79.061 108.986,78.167 108.643 C 77.273 108.300,77.200 108.327,77.200 109.000 M76.000 111.400 C 76.000 111.773,76.378 112.000,77.000 112.000 C 77.622 112.000,78.000 111.773,78.000 111.400 C 78.000 111.027,77.622 110.800,77.000 110.800 C 76.378 110.800,76.000 111.027,76.000 111.400 M67.232 147.420 C 67.197 184.893,67.008 182.400,69.880 182.400 C 71.142 182.400,71.600 182.560,71.600 183.000 C 71.600 183.330,71.870 183.600,72.200 183.600 C 72.530 183.600,72.800 183.330,72.800 183.000 C 72.800 182.511,73.467 182.400,76.400 182.400 L 80.000 182.400 80.000 184.000 C 80.000 184.880,79.807 185.600,79.571 185.600 C 79.018 185.600,78.000 186.618,78.000 187.171 C 78.000 187.407,77.730 187.600,77.400 187.600 C 77.070 187.600,76.800 187.330,76.800 187.000 C 76.800 186.670,76.620 186.400,76.400 186.400 C 76.180 186.400,76.000 186.670,76.000 187.000 C 76.000 187.330,76.180 187.600,76.400 187.600 C 76.620 187.600,76.800 188.050,76.800 188.600 C 76.800 190.260,78.366 189.598,78.974 187.681 C 79.128 187.197,79.422 186.800,79.627 186.800 C 79.832 186.800,80.000 186.530,80.000 186.200 C 80.000 185.827,80.378 185.600,81.000 185.600 C 81.622 185.600,82.000 185.373,82.000 185.000 C 82.000 184.670,82.270 184.400,82.600 184.400 C 82.973 184.400,83.200 184.022,83.200 183.400 C 83.200 182.600,83.400 182.400,84.200 182.400 C 85.000 182.400,85.200 182.600,85.200 183.400 C 85.200 183.950,85.020 184.400,84.800 184.400 C 84.580 184.400,84.400 184.850,84.400 185.400 C 84.400 186.239,84.211 186.400,83.229 186.400 C 82.584 186.400,81.787 186.670,81.457 187.000 C 81.127 187.330,80.664 187.600,80.429 187.600 C 80.193 187.600,80.000 187.855,80.000 188.167 C 80.000 188.478,79.775 188.838,79.500 188.967 C 79.100 189.153,79.100 189.247,79.500 189.433 C 79.775 189.562,80.000 189.922,80.000 190.233 C 80.000 190.545,80.270 190.800,80.600 190.800 C 80.930 190.800,81.200 190.980,81.200 191.200 C 81.200 191.420,81.473 191.600,81.808 191.600 C 82.256 191.600,82.349 191.338,82.164 190.600 C 81.979 189.861,82.072 189.600,82.523 189.600 C 82.859 189.600,83.193 189.444,83.267 189.253 C 83.537 188.548,85.200 188.308,85.200 188.973 C 85.200 189.318,85.020 189.600,84.800 189.600 C 84.580 189.600,84.400 190.050,84.400 190.600 C 84.400 191.222,84.173 191.600,83.800 191.600 C 83.470 191.600,83.200 191.870,83.200 192.200 C 83.200 192.573,82.822 192.800,82.200 192.800 C 81.650 192.800,81.200 192.620,81.200 192.400 C 81.200 192.180,80.930 192.000,80.600 192.000 C 80.133 192.000,80.000 192.533,80.000 194.400 C 80.000 196.561,79.917 196.800,79.171 196.800 C 77.469 196.800,76.788 195.451,77.973 194.423 C 79.053 193.486,79.501 191.600,78.643 191.600 C 78.290 191.600,78.000 191.420,78.000 191.200 C 78.000 190.980,77.730 190.800,77.400 190.800 C 77.070 190.800,76.800 190.980,76.800 191.200 C 76.800 191.420,76.350 191.600,75.800 191.600 C 75.178 191.600,74.800 191.827,74.800 192.200 C 74.800 192.530,75.070 192.800,75.400 192.800 C 75.822 192.800,76.000 193.226,76.000 194.231 C 76.000 195.653,77.724 198.000,78.769 198.000 C 79.006 198.000,79.200 198.270,79.200 198.600 C 79.200 198.930,79.380 199.200,79.600 199.200 C 79.820 199.200,80.000 199.830,80.000 200.600 C 80.000 201.827,80.124 202.000,81.000 202.000 C 81.550 202.000,82.000 201.820,82.000 201.600 C 82.000 201.380,82.540 201.200,83.200 201.200 C 84.000 201.200,84.400 201.400,84.400 201.800 C 84.400 202.200,84.000 202.400,83.200 202.400 C 82.267 202.400,82.000 202.578,82.000 203.200 C 82.000 203.766,81.733 204.000,81.088 204.000 C 80.587 204.000,79.917 203.640,79.600 203.200 C 78.996 202.362,78.000 202.113,78.000 202.800 C 78.000 203.020,77.807 203.200,77.571 203.200 C 77.018 203.200,76.000 204.218,76.000 204.771 C 76.000 205.007,76.180 205.200,76.400 205.200 C 76.620 205.200,76.800 205.650,76.800 206.200 C 76.800 206.822,77.027 207.200,77.400 207.200 C 77.800 207.200,78.000 207.600,78.000 208.400 C 78.000 209.200,78.200 209.600,78.600 209.600 C 78.930 209.600,79.200 209.780,79.200 210.000 C 79.200 210.226,80.333 210.400,81.800 210.400 L 84.400 210.400 84.400 212.000 C 84.400 213.966,82.697 214.438,82.236 212.600 C 82.028 211.773,81.744 211.600,80.592 211.600 C 79.374 211.600,79.200 211.725,79.200 212.600 C 79.200 213.222,78.973 213.600,78.600 213.600 C 78.227 213.600,78.000 213.222,78.000 212.600 C 78.000 211.978,77.773 211.600,77.400 211.600 C 76.981 211.600,76.800 212.022,76.800 213.000 C 76.800 213.770,76.620 214.400,76.400 214.400 C 76.180 214.400,76.000 214.670,76.000 215.000 C 76.000 215.330,76.180 215.600,76.400 215.600 C 76.620 215.600,76.800 215.870,76.800 216.200 C 76.800 216.530,77.070 216.800,77.400 216.800 C 77.730 216.800,78.000 216.530,78.000 216.200 C 78.000 215.870,78.255 215.600,78.567 215.600 C 78.878 215.600,79.193 215.449,79.267 215.263 C 79.530 214.599,82.000 214.370,82.000 215.010 C 82.000 215.334,81.820 215.600,81.600 215.600 C 81.380 215.600,81.200 215.870,81.200 216.200 C 81.200 216.633,80.756 216.800,79.600 216.800 C 78.444 216.800,78.000 216.967,78.000 217.400 C 78.000 217.730,78.289 218.000,78.643 218.000 C 79.065 218.000,79.202 218.218,79.043 218.633 C 78.909 218.981,78.800 219.611,78.800 220.033 C 78.800 220.584,78.519 220.800,77.800 220.800 C 77.000 220.800,76.800 221.000,76.800 221.800 C 76.800 222.764,76.893 222.800,79.400 222.800 C 81.444 222.800,82.000 222.928,82.000 223.400 C 82.000 223.853,81.511 224.000,80.000 224.000 C 78.489 224.000,78.000 224.147,78.000 224.600 C 78.000 224.930,77.730 225.200,77.400 225.200 C 77.070 225.200,76.800 224.930,76.800 224.600 C 76.800 224.270,76.620 224.000,76.400 224.000 C 76.180 224.000,76.000 224.450,76.000 225.000 C 76.000 225.550,76.180 226.000,76.400 226.000 C 76.983 226.000,76.891 228.301,76.300 228.509 C 75.393 228.829,113.787 229.391,136.800 229.396 L 159.400 229.400 159.503 206.023 C 159.560 193.166,159.457 182.497,159.273 182.313 C 159.090 182.130,138.523 181.987,113.570 181.995 L 68.200 182.010 68.296 147.705 C 68.351 128.139,68.243 113.634,68.045 113.945 C 67.751 114.406,67.663 114.406,67.480 113.945 C 67.361 113.645,67.249 128.709,67.232 147.420 M78.000 184.000 C 78.000 184.220,78.270 184.400,78.600 184.400 C 78.930 184.400,79.200 184.220,79.200 184.000 C 79.200 183.780,78.930 183.600,78.600 183.600 C 78.270 183.600,78.000 183.780,78.000 184.000 M71.600 185.000 C 71.600 185.330,71.870 185.600,72.200 185.600 C 72.530 185.600,72.800 185.330,72.800 185.000 C 72.800 184.670,72.530 184.400,72.200 184.400 C 71.870 184.400,71.600 184.670,71.600 185.000 M78.000 192.200 C 78.000 192.530,77.730 192.800,77.400 192.800 C 77.070 192.800,76.800 192.530,76.800 192.200 C 76.800 191.870,77.070 191.600,77.400 191.600 C 77.730 191.600,78.000 191.870,78.000 192.200 M86.400 192.200 C 86.400 192.530,86.130 192.800,85.800 192.800 C 85.470 192.800,85.200 193.070,85.200 193.400 C 85.200 193.730,85.470 194.000,85.800 194.000 C 86.130 194.000,86.400 194.180,86.400 194.400 C 86.400 194.620,85.950 194.800,85.400 194.800 C 84.850 194.800,84.400 194.620,84.400 194.400 C 84.400 194.180,84.130 194.000,83.800 194.000 C 83.470 194.000,83.200 193.730,83.200 193.400 C 83.200 193.070,83.470 192.800,83.800 192.800 C 84.130 192.800,84.400 192.530,84.400 192.200 C 84.400 191.827,84.778 191.600,85.400 191.600 C 86.022 191.600,86.400 191.827,86.400 192.200 M82.629 194.571 C 83.489 195.432,83.318 196.000,82.200 196.000 C 81.400 196.000,81.200 195.800,81.200 195.000 C 81.200 193.882,81.768 193.711,82.629 194.571 M72.800 196.429 C 72.800 196.982,73.818 198.000,74.371 198.000 C 74.978 198.000,74.903 197.246,74.229 196.571 C 73.554 195.897,72.800 195.822,72.800 196.429 M74.800 199.348 C 74.800 199.706,74.530 200.000,74.200 200.000 C 73.870 200.000,73.600 200.270,73.600 200.600 C 73.600 200.930,73.870 201.200,74.200 201.200 C 74.530 201.200,74.800 200.930,74.800 200.600 C 74.800 200.227,75.178 200.000,75.800 200.000 C 76.600 200.000,76.800 200.200,76.800 201.000 C 76.800 202.118,77.368 202.289,78.229 201.429 C 78.947 200.710,78.944 200.487,78.204 199.747 C 77.279 198.822,74.800 198.531,74.800 199.348 M84.400 199.400 C 84.400 199.800,84.000 200.000,83.200 200.000 C 82.400 200.000,82.000 199.800,82.000 199.400 C 82.000 199.000,82.400 198.800,83.200 198.800 C 84.000 198.800,84.400 199.000,84.400 199.400 M82.000 205.800 C 82.000 206.200,82.400 206.400,83.200 206.400 C 83.860 206.400,84.400 206.580,84.400 206.800 C 84.400 207.020,83.410 207.200,82.200 207.200 C 80.120 207.200,80.000 207.145,80.000 206.200 C 80.000 205.400,80.200 205.200,81.000 205.200 C 81.622 205.200,82.000 205.427,82.000 205.800 M73.600 209.000 C 73.600 209.330,73.870 209.600,74.200 209.600 C 74.530 209.600,74.800 209.330,74.800 209.000 C 74.800 208.670,74.530 208.400,74.200 208.400 C 73.870 208.400,73.600 208.670,73.600 209.000 M80.000 209.000 C 80.000 209.330,79.820 209.600,79.600 209.600 C 79.380 209.600,79.200 209.330,79.200 209.000 C 79.200 208.670,79.380 208.400,79.600 208.400 C 79.820 208.400,80.000 208.670,80.000 209.000 M84.400 209.000 C 84.400 209.400,84.000 209.600,83.200 209.600 C 82.400 209.600,82.000 209.400,82.000 209.000 C 82.000 208.600,82.400 208.400,83.200 208.400 C 84.000 208.400,84.400 208.600,84.400 209.000 M74.800 213.000 C 74.800 213.330,75.070 213.600,75.400 213.600 C 75.730 213.600,76.000 213.330,76.000 213.000 C 76.000 212.670,75.730 212.400,75.400 212.400 C 75.070 212.400,74.800 212.670,74.800 213.000 M81.200 213.000 C 81.200 213.330,80.930 213.600,80.600 213.600 C 80.270 213.600,80.000 213.330,80.000 213.000 C 80.000 212.670,80.270 212.400,80.600 212.400 C 80.930 212.400,81.200 212.670,81.200 213.000 M74.800 216.200 C 74.800 216.530,75.070 216.800,75.400 216.800 C 75.730 216.800,76.000 216.530,76.000 216.200 C 76.000 215.870,75.730 215.600,75.400 215.600 C 75.070 215.600,74.800 215.870,74.800 216.200 M76.000 218.200 C 76.000 218.530,76.270 218.800,76.600 218.800 C 76.930 218.800,77.200 218.530,77.200 218.200 C 77.200 217.870,76.930 217.600,76.600 217.600 C 76.270 217.600,76.000 217.870,76.000 218.200 M72.800 219.400 C 72.800 219.730,73.070 220.000,73.400 220.000 C 73.730 220.000,74.000 219.730,74.000 219.400 C 74.000 219.070,73.730 218.800,73.400 218.800 C 73.070 218.800,72.800 219.070,72.800 219.400 M82.000 219.800 C 82.000 220.600,81.800 220.800,81.000 220.800 C 80.200 220.800,80.000 220.600,80.000 219.800 C 80.000 219.000,80.200 218.800,81.000 218.800 C 81.800 218.800,82.000 219.000,82.000 219.800 M85.200 220.200 C 85.200 220.573,84.822 220.800,84.200 220.800 C 83.578 220.800,83.200 220.573,83.200 220.200 C 83.200 219.827,83.578 219.600,84.200 219.600 C 84.822 219.600,85.200 219.827,85.200 220.200 M71.600 221.400 C 71.600 221.730,71.870 222.000,72.200 222.000 C 72.530 222.000,72.800 221.730,72.800 221.400 C 72.800 221.070,72.530 220.800,72.200 220.800 C 71.870 220.800,71.600 221.070,71.600 221.400 M74.000 221.400 C 74.000 221.730,74.180 222.000,74.400 222.000 C 74.620 222.000,74.800 221.730,74.800 221.400 C 74.800 221.070,74.620 220.800,74.400 220.800 C 74.180 220.800,74.000 221.070,74.000 221.400 M85.200 225.400 C 85.200 225.773,84.822 226.000,84.200 226.000 C 83.578 226.000,83.200 225.773,83.200 225.400 C 83.200 225.027,83.578 224.800,84.200 224.800 C 84.822 224.800,85.200 225.027,85.200 225.400 M87.600 225.400 C 87.600 225.730,87.330 226.000,87.000 226.000 C 86.670 226.000,86.400 225.730,86.400 225.400 C 86.400 225.070,86.670 224.800,87.000 224.800 C 87.330 224.800,87.600 225.070,87.600 225.400 M79.200 225.600 C 79.200 225.820,79.650 226.000,80.200 226.000 C 80.822 226.000,81.200 226.227,81.200 226.600 C 81.200 227.033,80.756 227.200,79.600 227.200 C 78.160 227.200,78.000 227.100,78.000 226.200 C 78.000 225.578,78.227 225.200,78.600 225.200 C 78.930 225.200,79.200 225.380,79.200 225.600 M74.800 226.600 C 74.800 226.930,75.070 227.200,75.400 227.200 C 75.730 227.200,76.000 226.930,76.000 226.600 C 76.000 226.270,75.730 226.000,75.400 226.000 C 75.070 226.000,74.800 226.270,74.800 226.600 M71.600 227.600 C 71.600 227.820,71.870 228.000,72.200 228.000 C 72.530 228.000,72.800 227.820,72.800 227.600 C 72.800 227.380,72.530 227.200,72.200 227.200 C 71.870 227.200,71.600 227.380,71.600 227.600 M67.232 271.100 C 67.211 298.921,67.336 313.200,67.600 313.200 C 67.820 313.200,68.000 313.470,68.000 313.800 C 68.000 314.130,67.820 314.400,67.600 314.400 C 66.968 314.400,67.065 334.104,67.700 334.744 C 68.101 335.148,68.049 335.190,67.434 334.956 C 66.976 334.781,66.764 334.819,66.907 335.049 C 67.052 335.285,66.105 335.401,64.472 335.348 L 61.800 335.261 64.600 335.580 C 66.356 335.780,67.586 335.751,67.900 335.501 C 68.296 335.185,68.399 324.018,68.394 282.051 C 68.390 252.111,68.237 229.238,68.042 229.545 C 67.751 230.006,67.663 230.006,67.480 229.545 C 67.361 229.245,67.249 247.945,67.232 271.100 M109.801 259.602 C 109.926 259.804,106.785 259.923,102.510 259.878 L 95.000 259.800 95.000 297.449 C 95.000 322.047,95.139 335.219,95.400 335.449 C 95.620 335.642,104.620 335.804,115.400 335.810 C 126.180 335.815,148.478 335.867,164.952 335.925 C 181.425 335.982,195.002 335.932,195.121 335.812 C 195.569 335.365,195.406 333.611,194.900 333.417 C 194.577 333.293,194.410 332.678,194.467 331.828 C 194.525 330.966,194.299 330.152,193.871 329.678 C 193.442 329.204,193.286 328.642,193.458 328.192 C 193.649 327.694,193.590 327.559,193.268 327.758 C 192.957 327.950,192.800 327.703,192.800 327.024 C 192.800 326.461,192.599 326.000,192.353 326.000 C 192.094 326.000,191.986 325.586,192.096 325.012 C 192.199 324.469,192.130 324.119,191.942 324.236 C 191.754 324.352,191.573 324.122,191.539 323.724 C 191.428 322.403,191.381 322.204,191.066 321.700 C 190.876 321.396,190.958 321.195,191.276 321.187 C 191.596 321.180,191.494 320.943,191.013 320.579 C 190.580 320.252,190.203 319.583,190.174 319.092 C 190.146 318.601,189.825 317.503,189.462 316.651 C 188.668 314.793,188.655 314.666,189.300 315.053 C 189.640 315.257,189.624 315.137,189.251 314.677 C 188.629 313.910,188.205 313.761,188.638 314.462 C 188.803 314.729,188.749 314.816,188.510 314.668 C 187.978 314.339,187.568 312.800,188.013 312.800 C 188.198 312.800,188.324 312.452,188.292 312.028 C 188.260 311.603,188.046 311.288,187.817 311.328 C 187.588 311.367,187.445 311.175,187.500 310.900 C 187.555 310.625,187.445 310.400,187.255 310.400 C 187.065 310.400,186.937 309.995,186.971 309.500 C 187.005 309.005,186.797 308.220,186.508 307.756 C 186.218 307.292,186.095 306.617,186.234 306.256 C 186.374 305.891,186.289 305.600,186.043 305.600 C 185.799 305.600,185.600 305.319,185.600 304.976 C 185.600 304.633,185.454 304.443,185.274 304.554 C 185.095 304.665,185.006 304.034,185.076 303.153 C 185.155 302.155,185.051 301.645,184.801 301.799 C 184.581 301.936,184.387 301.902,184.370 301.724 C 184.252 300.432,183.917 299.379,183.588 299.267 C 183.375 299.193,183.200 298.958,183.200 298.743 C 183.200 298.528,183.425 298.484,183.700 298.645 C 183.975 298.806,183.867 298.558,183.461 298.094 C 183.054 297.630,182.840 297.059,182.984 296.826 C 183.128 296.592,182.966 296.001,182.623 295.512 C 182.280 295.022,182.000 294.289,182.000 293.882 C 182.000 293.476,181.720 292.863,181.377 292.520 C 181.034 292.177,180.850 291.648,180.966 291.344 C 181.221 290.679,180.427 288.800,179.891 288.800 C 179.672 288.800,179.621 288.163,179.770 287.300 C 179.957 286.218,179.916 285.967,179.621 286.400 C 179.269 286.917,179.205 286.904,179.156 286.300 C 179.074 285.278,179.016 285.044,178.733 284.600 C 178.593 284.380,178.352 283.357,178.198 282.327 C 178.043 281.297,177.666 280.357,177.359 280.239 C 177.026 280.112,176.800 279.453,176.800 278.613 C 176.800 277.836,176.609 277.200,176.376 277.200 C 176.143 277.200,176.065 277.019,176.202 276.797 C 176.339 276.576,176.154 276.281,175.792 276.142 C 175.324 275.962,175.270 275.804,175.607 275.596 C 175.951 275.383,175.878 275.067,175.340 274.439 C 174.933 273.963,174.578 272.930,174.551 272.143 C 174.525 271.355,174.284 270.575,174.016 270.410 C 173.748 270.244,173.588 269.589,173.660 268.954 C 173.746 268.196,173.621 267.834,173.296 267.900 C 172.976 267.965,172.790 267.469,172.772 266.500 C 172.749 265.264,172.679 265.141,172.376 265.800 C 172.094 266.413,172.044 266.250,172.160 265.104 C 172.243 264.281,172.151 263.707,171.956 263.827 C 171.760 263.948,171.600 263.756,171.600 263.400 C 171.600 263.022,171.413 262.869,171.149 263.031 C 170.827 263.230,170.812 263.108,171.095 262.601 C 171.394 262.068,171.303 261.703,170.731 261.131 C 170.313 260.713,170.068 260.214,170.186 260.023 C 170.736 259.134,155.159 259.064,117.701 259.788 C 113.906 259.861,110.879 259.796,110.973 259.644 C 111.067 259.491,110.793 259.340,110.364 259.307 C 109.934 259.275,109.681 259.408,109.801 259.602 M337.000 265.139 C 336.120 265.298,335.205 265.549,334.966 265.697 C 334.728 265.844,333.942 266.069,333.219 266.197 C 332.497 266.324,331.387 266.696,330.753 267.024 C 330.119 267.352,329.597 267.481,329.594 267.310 C 329.591 267.140,329.456 267.205,329.294 267.455 C 329.049 267.835,326.033 269.308,325.694 269.213 C 324.347 268.838,312.840 280.485,312.791 282.272 C 312.786 282.452,312.430 283.050,312.000 283.600 C 311.570 284.150,311.214 284.915,311.209 285.300 C 311.204 285.685,311.020 286.000,310.800 286.000 C 310.580 286.000,310.429 286.135,310.465 286.300 C 310.500 286.465,310.321 287.104,310.067 287.721 C 309.812 288.337,309.505 289.402,309.385 290.087 C 309.264 290.772,309.085 291.462,308.988 291.620 C 307.914 293.357,307.914 307.443,308.988 309.180 C 309.085 309.338,309.264 310.028,309.385 310.713 C 309.505 311.398,309.812 312.463,310.067 313.079 C 310.321 313.696,310.500 314.335,310.465 314.500 C 310.429 314.665,310.580 314.800,310.800 314.800 C 311.020 314.800,311.200 315.160,311.200 315.600 C 311.200 316.040,311.359 316.400,311.553 316.400 C 311.843 316.400,312.227 317.267,312.357 318.215 C 312.519 319.405,321.866 329.600,322.794 329.600 C 322.984 329.600,323.647 330.022,324.269 330.538 C 324.891 331.054,326.255 331.798,327.300 332.192 C 328.345 332.586,329.200 333.094,329.200 333.321 C 329.200 333.548,329.313 333.621,329.451 333.483 C 329.589 333.345,330.198 333.488,330.804 333.802 C 331.410 334.116,332.492 334.475,333.208 334.601 C 333.924 334.728,334.890 335.047,335.355 335.312 C 336.566 336.001,349.707 335.975,351.670 335.279 C 352.478 334.993,353.627 334.670,354.223 334.561 C 354.820 334.453,355.801 334.110,356.403 333.798 C 357.006 333.487,357.611 333.345,357.749 333.483 C 357.887 333.621,358.000 333.548,358.000 333.321 C 358.000 333.094,358.855 332.586,359.900 332.192 C 360.945 331.798,362.309 331.054,362.931 330.538 C 363.553 330.022,364.211 329.600,364.394 329.600 C 365.395 329.600,374.623 319.477,374.872 318.106 C 375.075 316.986,375.341 316.400,375.647 316.400 C 375.841 316.400,376.000 316.040,376.000 315.600 C 376.000 315.160,376.180 314.800,376.400 314.800 C 376.620 314.800,376.771 314.665,376.735 314.500 C 376.700 314.335,376.877 313.700,377.129 313.090 C 377.382 312.479,377.671 311.520,377.773 310.959 C 377.875 310.398,378.193 309.278,378.479 308.470 C 379.195 306.451,379.195 294.349,378.479 292.330 C 378.193 291.522,377.875 290.402,377.773 289.841 C 377.671 289.280,377.382 288.321,377.129 287.710 C 376.877 287.100,376.700 286.465,376.735 286.300 C 376.771 286.135,376.620 286.000,376.400 286.000 C 376.180 286.000,375.996 285.685,375.991 285.300 C 375.986 284.915,375.630 284.150,375.200 283.600 C 374.770 283.050,374.414 282.452,374.409 282.272 C 374.359 280.433,363.274 269.261,361.413 269.174 C 360.816 269.147,358.157 267.843,357.906 267.455 C 357.744 267.205,357.609 267.140,357.606 267.310 C 357.603 267.481,357.081 267.352,356.447 267.024 C 355.813 266.696,354.708 266.325,353.992 266.199 C 353.276 266.072,352.310 265.765,351.845 265.515 C 350.866 264.989,339.435 264.699,337.000 265.139 M57.700 335.487 C 58.305 335.578,59.295 335.578,59.900 335.487 C 60.505 335.395,60.010 335.320,58.800 335.320 C 57.590 335.320,57.095 335.395,57.700 335.487 " stroke="none" fill="#ec545c" fill-rule="evenodd"></path><path id="path1" d="M11.600 66.000 C 11.600 66.220,11.285 66.403,10.900 66.406 C 10.505 66.410,10.374 66.540,10.600 66.706 C 10.865 66.901,11.000 112.063,11.000 200.800 C 11.000 289.537,10.865 334.699,10.600 334.894 C 10.374 335.060,10.505 335.190,10.900 335.194 C 11.285 335.197,11.600 335.380,11.600 335.600 C 11.600 336.036,65.438 336.191,66.565 335.758 C 66.912 335.625,67.081 335.332,66.942 335.106 C 66.799 334.875,66.932 334.784,67.244 334.898 C 67.550 335.009,67.755 335.303,67.700 335.550 C 67.645 335.798,67.780 336.000,68.000 336.000 C 68.591 336.000,68.486 335.369,67.800 334.800 C 67.075 334.198,66.881 314.400,67.600 314.400 C 67.820 314.400,68.000 314.130,68.000 313.800 C 68.000 313.470,67.820 313.200,67.600 313.200 C 67.336 313.200,67.202 298.904,67.206 271.100 C 67.210 247.308,67.362 229.237,67.558 229.545 C 67.849 230.006,67.937 230.006,68.120 229.545 C 68.274 229.158,68.346 229.145,68.368 229.500 C 68.393 229.897,77.737 230.000,113.667 230.000 C 138.563 230.000,158.858 229.934,158.767 229.853 C 158.675 229.773,145.910 229.594,130.400 229.455 C 99.260 229.178,75.529 228.759,76.300 228.501 C 76.891 228.303,76.983 226.000,76.400 226.000 C 76.180 226.000,76.000 225.550,76.000 225.000 C 76.000 224.450,76.180 224.000,76.400 224.000 C 76.620 224.000,76.800 224.270,76.800 224.600 C 76.800 224.930,77.070 225.200,77.400 225.200 C 77.730 225.200,78.000 224.930,78.000 224.600 C 78.000 224.147,78.489 224.000,80.000 224.000 C 81.511 224.000,82.000 223.853,82.000 223.400 C 82.000 222.928,81.444 222.800,79.400 222.800 C 76.893 222.800,76.800 222.764,76.800 221.800 C 76.800 221.000,77.000 220.800,77.800 220.800 C 78.519 220.800,78.800 220.584,78.800 220.033 C 78.800 219.611,78.909 218.981,79.043 218.633 C 79.202 218.218,79.065 218.000,78.643 218.000 C 78.289 218.000,78.000 217.730,78.000 217.400 C 78.000 216.967,78.444 216.800,79.600 216.800 C 80.756 216.800,81.200 216.633,81.200 216.200 C 81.200 215.870,81.380 215.600,81.600 215.600 C 81.820 215.600,82.000 215.334,82.000 215.010 C 82.000 214.370,79.530 214.599,79.267 215.263 C 79.193 215.449,78.878 215.600,78.567 215.600 C 78.255 215.600,78.000 215.870,78.000 216.200 C 78.000 216.530,77.730 216.800,77.400 216.800 C 77.070 216.800,76.800 216.530,76.800 216.200 C 76.800 215.870,76.620 215.600,76.400 215.600 C 76.180 215.600,76.000 215.330,76.000 215.000 C 76.000 214.670,76.180 214.400,76.400 214.400 C 76.620 214.400,76.800 213.770,76.800 213.000 C 76.800 212.022,76.981 211.600,77.400 211.600 C 77.773 211.600,78.000 211.978,78.000 212.600 C 78.000 213.222,78.227 213.600,78.600 213.600 C 78.973 213.600,79.200 213.222,79.200 212.600 C 79.200 211.725,79.374 211.600,80.592 211.600 C 81.744 211.600,82.028 211.773,82.236 212.600 C 82.697 214.438,84.400 213.966,84.400 212.000 L 84.400 210.400 81.800 210.400 C 80.333 210.400,79.200 210.226,79.200 210.000 C 79.200 209.780,78.930 209.600,78.600 209.600 C 78.200 209.600,78.000 209.200,78.000 208.400 C 78.000 207.600,77.800 207.200,77.400 207.200 C 77.027 207.200,76.800 206.822,76.800 206.200 C 76.800 205.650,76.620 205.200,76.400 205.200 C 76.180 205.200,76.000 205.007,76.000 204.771 C 76.000 204.218,77.018 203.200,77.571 203.200 C 77.807 203.200,78.000 203.020,78.000 202.800 C 78.000 202.113,78.996 202.362,79.600 203.200 C 79.917 203.640,80.587 204.000,81.088 204.000 C 81.733 204.000,82.000 203.766,82.000 203.200 C 82.000 202.578,82.267 202.400,83.200 202.400 C 84.000 202.400,84.400 202.200,84.400 201.800 C 84.400 201.400,84.000 201.200,83.200 201.200 C 82.540 201.200,82.000 201.380,82.000 201.600 C 82.000 201.820,81.550 202.000,81.000 202.000 C 80.124 202.000,80.000 201.827,80.000 200.600 C 80.000 199.830,79.820 199.200,79.600 199.200 C 79.380 199.200,79.200 198.930,79.200 198.600 C 79.200 198.270,79.006 198.000,78.769 198.000 C 77.724 198.000,76.000 195.653,76.000 194.231 C 76.000 193.226,75.822 192.800,75.400 192.800 C 75.070 192.800,74.800 192.530,74.800 192.200 C 74.800 191.827,75.178 191.600,75.800 191.600 C 76.350 191.600,76.800 191.420,76.800 191.200 C 76.800 190.980,77.070 190.800,77.400 190.800 C 77.730 190.800,78.000 190.980,78.000 191.200 C 78.000 191.420,78.290 191.600,78.643 191.600 C 79.501 191.600,79.053 193.486,77.973 194.423 C 76.788 195.451,77.469 196.800,79.171 196.800 C 79.917 196.800,80.000 196.561,80.000 194.400 C 80.000 192.533,80.133 192.000,80.600 192.000 C 80.930 192.000,81.200 192.180,81.200 192.400 C 81.200 192.620,81.650 192.800,82.200 192.800 C 82.822 192.800,83.200 192.573,83.200 192.200 C 83.200 191.870,83.470 191.600,83.800 191.600 C 84.173 191.600,84.400 191.222,84.400 190.600 C 84.400 190.050,84.580 189.600,84.800 189.600 C 85.020 189.600,85.200 189.318,85.200 188.973 C 85.200 188.308,83.537 188.548,83.267 189.253 C 83.193 189.444,82.859 189.600,82.523 189.600 C 82.072 189.600,81.979 189.861,82.164 190.600 C 82.349 191.338,82.256 191.600,81.808 191.600 C 81.473 191.600,81.200 191.420,81.200 191.200 C 81.200 190.980,80.930 190.800,80.600 190.800 C 80.270 190.800,80.000 190.545,80.000 190.233 C 80.000 189.922,79.775 189.562,79.500 189.433 C 79.100 189.247,79.100 189.153,79.500 188.967 C 79.775 188.838,80.000 188.478,80.000 188.167 C 80.000 187.855,80.193 187.600,80.429 187.600 C 80.664 187.600,81.127 187.330,81.457 187.000 C 81.787 186.670,82.584 186.400,83.229 186.400 C 84.211 186.400,84.400 186.239,84.400 185.400 C 84.400 184.850,84.580 184.400,84.800 184.400 C 85.020 184.400,85.200 183.950,85.200 183.400 C 85.200 182.600,85.000 182.400,84.200 182.400 C 83.400 182.400,83.200 182.600,83.200 183.400 C 83.200 184.022,82.973 184.400,82.600 184.400 C 82.270 184.400,82.000 184.670,82.000 185.000 C 82.000 185.373,81.622 185.600,81.000 185.600 C 80.378 185.600,80.000 185.827,80.000 186.200 C 80.000 186.530,79.832 186.800,79.627 186.800 C 79.422 186.800,79.128 187.197,78.974 187.681 C 78.366 189.598,76.800 190.260,76.800 188.600 C 76.800 188.050,76.620 187.600,76.400 187.600 C 76.180 187.600,76.000 187.330,76.000 187.000 C 76.000 186.670,76.180 186.400,76.400 186.400 C 76.620 186.400,76.800 186.670,76.800 187.000 C 76.800 187.330,77.070 187.600,77.400 187.600 C 77.730 187.600,78.000 187.407,78.000 187.171 C 78.000 186.618,79.018 185.600,79.571 185.600 C 79.807 185.600,80.000 184.880,80.000 184.000 L 80.000 182.400 76.400 182.400 C 73.467 182.400,72.800 182.511,72.800 183.000 C 72.800 183.330,72.530 183.600,72.200 183.600 C 71.870 183.600,71.600 183.330,71.600 183.000 C 71.600 182.560,71.142 182.400,69.880 182.400 C 67.009 182.400,67.199 184.888,67.206 147.420 C 67.210 128.164,67.362 113.637,67.558 113.945 C 67.849 114.406,67.937 114.406,68.120 113.945 C 68.274 113.558,68.346 113.545,68.368 113.900 C 68.393 114.296,76.497 114.400,107.467 114.400 C 128.953 114.400,146.458 114.334,146.367 114.254 C 146.275 114.174,135.130 113.976,121.600 113.813 C 108.070 113.650,96.010 113.484,94.800 113.445 C 93.590 113.405,89.540 113.319,85.800 113.255 C 82.060 113.190,79.225 113.046,79.500 112.935 C 80.092 112.696,80.181 110.800,79.600 110.800 C 79.018 110.800,79.110 110.032,79.771 109.371 C 80.432 108.710,81.200 108.618,81.200 109.200 C 81.200 109.420,81.650 109.600,82.200 109.600 C 82.822 109.600,83.200 109.373,83.200 109.000 C 83.200 108.670,82.930 108.400,82.600 108.400 C 82.270 108.400,82.000 108.220,82.000 108.000 C 82.000 107.780,81.100 107.600,80.000 107.600 C 78.133 107.600,78.000 107.533,78.000 106.600 C 78.000 105.978,77.773 105.600,77.400 105.600 C 77.070 105.600,76.800 105.330,76.800 105.000 C 76.800 104.670,77.070 104.400,77.400 104.400 C 77.730 104.400,78.000 104.670,78.000 105.000 C 78.000 105.330,78.270 105.600,78.600 105.600 C 78.930 105.600,79.200 105.780,79.200 106.000 C 79.200 106.220,79.380 106.400,79.600 106.400 C 79.820 106.400,80.000 105.950,80.000 105.400 C 80.000 104.600,79.800 104.400,79.000 104.400 C 78.450 104.400,78.000 104.220,78.000 104.000 C 78.000 103.780,77.730 103.600,77.400 103.600 C 77.070 103.600,76.800 103.330,76.800 103.000 C 76.800 102.670,77.070 102.400,77.400 102.400 C 77.730 102.400,78.000 102.130,78.000 101.800 C 78.000 101.470,78.270 101.200,78.600 101.200 C 78.973 101.200,79.200 100.822,79.200 100.200 C 79.200 99.578,78.973 99.200,78.600 99.200 C 78.270 99.200,78.000 99.020,78.000 98.800 C 78.000 98.580,77.550 98.400,77.000 98.400 C 76.378 98.400,76.000 98.173,76.000 97.800 C 76.000 97.460,76.359 97.200,76.829 97.200 C 77.284 97.200,77.927 97.470,78.257 97.800 C 78.587 98.130,79.114 98.400,79.429 98.400 C 79.743 98.400,80.000 98.130,80.000 97.800 C 80.000 97.470,80.270 97.200,80.600 97.200 C 80.930 97.200,81.200 96.930,81.200 96.600 C 81.200 96.270,81.380 96.000,81.600 96.000 C 81.820 96.000,82.000 95.370,82.000 94.600 C 82.000 93.142,80.403 92.479,79.833 93.700 C 79.647 94.100,79.553 94.100,79.367 93.700 C 79.238 93.425,78.878 93.200,78.567 93.200 C 78.255 93.200,78.000 92.930,78.000 92.600 C 78.000 92.270,77.730 92.000,77.400 92.000 C 77.070 92.000,76.800 91.730,76.800 91.400 C 76.800 91.070,77.070 90.800,77.400 90.800 C 77.730 90.800,78.000 91.070,78.000 91.400 C 78.000 91.730,78.270 92.000,78.600 92.000 C 78.973 92.000,79.200 91.622,79.200 91.000 C 79.200 90.450,79.380 90.000,79.600 90.000 C 79.820 90.000,80.000 89.730,80.000 89.400 C 80.000 89.027,79.622 88.800,79.000 88.800 C 78.200 88.800,78.000 88.600,78.000 87.800 C 78.000 86.900,78.160 86.800,79.600 86.800 C 80.756 86.800,81.200 86.633,81.200 86.200 C 81.200 85.827,80.822 85.600,80.200 85.600 C 79.650 85.600,79.200 85.420,79.200 85.200 C 79.200 84.980,79.380 84.800,79.600 84.800 C 79.820 84.800,80.000 84.530,80.000 84.200 C 80.000 83.870,79.730 83.600,79.400 83.600 C 79.070 83.600,78.800 83.870,78.800 84.200 C 78.800 84.573,78.422 84.800,77.800 84.800 C 77.250 84.800,76.800 84.607,76.800 84.371 C 76.800 83.818,75.782 82.800,75.229 82.800 C 74.993 82.800,74.800 82.260,74.800 81.600 C 74.800 80.587,74.956 80.400,75.800 80.400 C 76.600 80.400,76.800 80.200,76.800 79.400 C 76.800 78.778,77.027 78.400,77.400 78.400 C 77.730 78.400,78.000 78.220,78.000 78.000 C 78.000 77.424,79.095 77.506,79.336 78.100 C 79.482 78.460,79.631 78.476,79.870 78.154 C 80.051 77.909,80.605 77.581,81.100 77.427 C 81.595 77.272,82.000 76.978,82.000 76.773 C 82.000 76.568,82.270 76.400,82.600 76.400 C 82.930 76.400,83.200 76.130,83.200 75.800 C 83.200 75.470,82.943 75.200,82.629 75.200 C 82.314 75.200,81.787 75.470,81.457 75.800 C 81.127 76.130,80.664 76.400,80.429 76.400 C 80.193 76.400,80.000 76.670,80.000 77.000 C 80.000 77.330,79.820 77.600,79.600 77.600 C 79.380 77.600,79.200 77.330,79.200 77.000 C 79.200 76.670,79.380 76.400,79.600 76.400 C 79.820 76.400,80.000 76.130,80.000 75.800 C 80.000 75.470,79.820 75.200,79.600 75.200 C 79.380 75.200,79.200 74.750,79.200 74.200 C 79.200 73.650,79.380 73.200,79.600 73.200 C 79.820 73.200,80.000 72.300,80.000 71.200 C 80.000 69.689,79.853 69.200,79.400 69.200 C 79.070 69.200,78.800 68.930,78.800 68.600 C 78.800 68.227,78.422 68.000,77.800 68.000 C 77.250 68.000,76.800 67.820,76.800 67.600 C 76.800 67.380,76.965 67.200,77.167 67.200 C 77.369 67.200,77.819 67.091,78.167 66.957 C 78.582 66.798,78.800 66.935,78.800 67.357 C 78.800 67.711,79.070 68.000,79.400 68.000 C 79.730 68.000,80.000 68.270,80.000 68.600 C 80.000 68.973,80.378 69.200,81.000 69.200 C 81.622 69.200,82.000 68.973,82.000 68.600 C 82.000 68.227,81.622 68.000,81.000 68.000 C 80.267 68.000,80.000 67.787,80.000 67.200 C 80.000 66.426,79.701 66.397,70.900 66.302 C 65.895 66.249,83.940 66.113,111.000 66.000 C 159.949 65.796,159.821 65.795,85.900 65.698 C 36.568 65.633,11.600 65.734,11.600 66.000 M60.707 66.286 C 60.106 66.377,59.026 66.379,58.307 66.290 C 57.588 66.201,58.080 66.126,59.400 66.124 C 60.720 66.122,61.308 66.195,60.707 66.286 M82.000 66.800 C 82.000 67.020,82.720 67.200,83.600 67.200 C 84.480 67.200,85.200 67.020,85.200 66.800 C 85.200 66.580,84.480 66.400,83.600 66.400 C 82.720 66.400,82.000 66.580,82.000 66.800 M76.000 69.800 C 76.000 70.130,75.730 70.400,75.400 70.400 C 75.070 70.400,74.800 70.130,74.800 69.800 C 74.800 69.470,75.070 69.200,75.400 69.200 C 75.730 69.200,76.000 69.470,76.000 69.800 M78.000 69.800 C 78.000 70.130,77.730 70.400,77.400 70.400 C 77.070 70.400,76.800 70.130,76.800 69.800 C 76.800 69.470,77.070 69.200,77.400 69.200 C 77.730 69.200,78.000 69.470,78.000 69.800 M82.000 70.600 C 82.000 71.000,82.400 71.200,83.200 71.200 C 84.000 71.200,84.400 71.000,84.400 70.600 C 84.400 70.200,84.000 70.000,83.200 70.000 C 82.400 70.000,82.000 70.200,82.000 70.600 M85.200 71.800 C 85.200 72.173,85.578 72.400,86.200 72.400 C 86.822 72.400,87.200 72.173,87.200 71.800 C 87.200 71.427,86.822 71.200,86.200 71.200 C 85.578 71.200,85.200 71.427,85.200 71.800 M215.667 72.820 C 215.901 73.492,216.146 73.987,216.211 73.920 C 216.459 73.668,215.891 71.600,215.574 71.600 C 215.391 71.600,215.433 72.149,215.667 72.820 M74.800 72.600 C 74.800 72.930,75.070 73.200,75.400 73.200 C 75.730 73.200,76.000 73.470,76.000 73.800 C 76.000 74.130,75.730 74.400,75.400 74.400 C 75.070 74.400,74.800 74.130,74.800 73.800 C 74.800 73.470,74.530 73.200,74.200 73.200 C 73.870 73.200,73.600 72.930,73.600 72.600 C 73.600 72.270,73.870 72.000,74.200 72.000 C 74.530 72.000,74.800 72.270,74.800 72.600 M79.200 72.600 C 79.200 72.930,78.930 73.200,78.600 73.200 C 78.270 73.200,78.000 73.470,78.000 73.800 C 78.000 74.130,77.730 74.400,77.400 74.400 C 77.070 74.400,76.800 74.130,76.800 73.800 C 76.800 73.470,77.070 73.200,77.400 73.200 C 77.730 73.200,78.000 72.930,78.000 72.600 C 78.000 72.270,78.270 72.000,78.600 72.000 C 78.930 72.000,79.200 72.270,79.200 72.600 M81.200 73.800 C 81.200 74.173,81.578 74.400,82.200 74.400 C 82.822 74.400,83.200 74.173,83.200 73.800 C 83.200 73.427,82.822 73.200,82.200 73.200 C 81.578 73.200,81.200 73.427,81.200 73.800 M74.800 78.000 C 74.800 79.156,74.633 79.600,74.200 79.600 C 73.767 79.600,73.600 79.156,73.600 78.000 C 73.600 76.844,73.767 76.400,74.200 76.400 C 74.633 76.400,74.800 76.844,74.800 78.000 M78.000 77.000 C 78.000 77.373,77.622 77.600,77.000 77.600 C 76.378 77.600,76.000 77.373,76.000 77.000 C 76.000 76.627,76.378 76.400,77.000 76.400 C 77.622 76.400,78.000 76.627,78.000 77.000 M289.665 78.217 C 289.140 79.369,289.047 80.287,289.500 79.833 C 289.665 79.668,289.816 79.413,289.835 79.267 C 289.854 79.120,290.011 78.677,290.184 78.283 C 290.357 77.888,290.416 77.482,290.314 77.381 C 290.213 77.280,289.921 77.656,289.665 78.217 M81.200 79.000 C 81.200 79.330,80.945 79.600,80.633 79.600 C 80.322 79.600,79.962 79.825,79.833 80.100 C 79.647 80.500,79.553 80.500,79.367 80.100 C 79.140 79.614,78.000 79.380,78.000 79.819 C 78.000 79.940,78.450 80.455,79.000 80.965 C 79.550 81.475,80.000 82.096,80.000 82.346 C 80.000 82.596,80.450 82.800,81.000 82.800 C 81.850 82.800,82.000 82.615,82.000 81.568 C 82.000 80.408,82.069 80.352,83.200 80.600 C 84.138 80.806,84.400 80.726,84.400 80.232 C 84.400 79.884,84.130 79.600,83.800 79.600 C 83.470 79.600,83.200 79.330,83.200 79.000 C 83.200 78.627,82.822 78.400,82.200 78.400 C 81.578 78.400,81.200 78.627,81.200 79.000 M73.600 81.000 C 73.600 81.373,73.222 81.600,72.600 81.600 C 71.978 81.600,71.600 81.373,71.600 81.000 C 71.600 80.627,71.978 80.400,72.600 80.400 C 73.222 80.400,73.600 80.627,73.600 81.000 M85.200 81.000 C 85.200 81.373,85.578 81.600,86.200 81.600 C 86.822 81.600,87.200 81.373,87.200 81.000 C 87.200 80.627,86.822 80.400,86.200 80.400 C 85.578 80.400,85.200 80.627,85.200 81.000 M76.000 82.200 C 76.000 82.619,76.422 82.800,77.400 82.800 C 78.378 82.800,78.800 82.619,78.800 82.200 C 78.800 81.781,78.378 81.600,77.400 81.600 C 76.422 81.600,76.000 81.781,76.000 82.200 M288.416 82.581 C 288.151 82.900,287.994 83.459,288.067 83.822 C 288.156 84.263,288.355 84.070,288.665 83.241 C 289.182 81.862,289.129 81.721,288.416 82.581 M74.800 84.200 C 74.800 84.530,74.530 84.800,74.200 84.800 C 73.870 84.800,73.600 84.530,73.600 84.200 C 73.600 83.870,73.870 83.600,74.200 83.600 C 74.530 83.600,74.800 83.870,74.800 84.200 M219.524 85.800 C 219.726 86.240,219.992 86.870,220.114 87.200 C 220.307 87.718,220.341 87.715,220.368 87.176 C 220.386 86.834,220.120 86.204,219.778 85.776 C 219.166 85.012,219.162 85.013,219.524 85.800 M76.800 87.400 C 76.800 87.730,76.620 88.000,76.400 88.000 C 76.180 88.000,76.000 87.730,76.000 87.400 C 76.000 87.070,76.180 86.800,76.400 86.800 C 76.620 86.800,76.800 87.070,76.800 87.400 M81.200 88.200 C 81.200 88.573,81.578 88.800,82.200 88.800 C 82.822 88.800,83.200 88.573,83.200 88.200 C 83.200 87.827,82.822 87.600,82.200 87.600 C 81.578 87.600,81.200 87.827,81.200 88.200 M286.473 88.887 C 286.213 89.147,286.000 89.634,286.000 89.969 C 286.000 90.387,286.201 90.291,286.641 89.663 C 287.343 88.661,287.228 88.132,286.473 88.887 M76.000 89.400 C 76.000 89.730,75.730 90.000,75.400 90.000 C 75.070 90.000,74.800 89.730,74.800 89.400 C 74.800 89.070,75.070 88.800,75.400 88.800 C 75.730 88.800,76.000 89.070,76.000 89.400 M74.000 90.600 C 74.000 90.930,73.730 91.200,73.400 91.200 C 73.070 91.200,72.800 90.930,72.800 90.600 C 72.800 90.270,73.070 90.000,73.400 90.000 C 73.730 90.000,74.000 90.270,74.000 90.600 M74.000 93.400 C 74.000 93.730,73.730 94.000,73.400 94.000 C 73.070 94.000,72.800 93.730,72.800 93.400 C 72.800 93.070,73.070 92.800,73.400 92.800 C 73.730 92.800,74.000 93.070,74.000 93.400 M78.000 93.600 C 78.000 93.820,78.270 94.000,78.600 94.000 C 78.930 94.000,79.200 94.270,79.200 94.600 C 79.200 94.930,79.380 95.200,79.600 95.200 C 79.820 95.200,80.000 95.650,80.000 96.200 C 80.000 96.822,79.773 97.200,79.400 97.200 C 79.027 97.200,78.800 96.822,78.800 96.200 C 78.800 95.467,78.587 95.200,78.000 95.200 C 77.560 95.200,77.200 95.380,77.200 95.600 C 77.200 95.820,76.930 96.000,76.600 96.000 C 76.270 96.000,76.000 95.820,76.000 95.600 C 76.000 95.380,76.180 95.200,76.400 95.200 C 76.620 95.200,76.800 94.750,76.800 94.200 C 76.800 93.578,77.027 93.200,77.400 93.200 C 77.730 93.200,78.000 93.380,78.000 93.600 M82.400 96.600 C 82.400 96.973,82.778 97.200,83.400 97.200 C 84.022 97.200,84.400 96.973,84.400 96.600 C 84.400 96.227,84.022 96.000,83.400 96.000 C 82.778 96.000,82.400 96.227,82.400 96.600 M78.000 99.800 C 78.000 100.130,77.730 100.400,77.400 100.400 C 77.070 100.400,76.800 100.130,76.800 99.800 C 76.800 99.470,77.070 99.200,77.400 99.200 C 77.730 99.200,78.000 99.470,78.000 99.800 M82.000 100.200 C 82.000 101.044,82.187 101.200,83.200 101.200 C 84.213 101.200,84.400 101.044,84.400 100.200 C 84.400 99.356,84.213 99.200,83.200 99.200 C 82.187 99.200,82.000 99.356,82.000 100.200 M78.800 103.000 C 78.800 103.330,79.070 103.600,79.400 103.600 C 79.730 103.600,80.000 103.330,80.000 103.000 C 80.000 102.670,79.730 102.400,79.400 102.400 C 79.070 102.400,78.800 102.670,78.800 103.000 M82.000 103.400 C 82.000 104.244,82.187 104.400,83.200 104.400 C 84.000 104.400,84.400 104.600,84.400 105.000 C 84.400 105.373,84.778 105.600,85.400 105.600 C 86.022 105.600,86.400 105.373,86.400 105.000 C 86.400 104.627,86.022 104.400,85.400 104.400 C 84.600 104.400,84.400 104.200,84.400 103.400 C 84.400 102.556,84.213 102.400,83.200 102.400 C 82.187 102.400,82.000 102.556,82.000 103.400 M225.743 106.048 C 225.918 107.149,226.809 108.349,226.669 107.295 C 226.603 106.797,226.348 106.188,226.102 105.942 C 225.773 105.613,225.679 105.641,225.743 106.048 M76.000 109.000 C 76.000 109.330,75.730 109.600,75.400 109.600 C 75.070 109.600,74.800 109.330,74.800 109.000 C 74.800 108.670,75.070 108.400,75.400 108.400 C 75.730 108.400,76.000 108.670,76.000 109.000 M78.167 108.643 C 79.061 108.986,78.954 109.600,78.000 109.600 C 77.556 109.600,77.200 109.333,77.200 109.000 C 77.200 108.327,77.273 108.300,78.167 108.643 M78.000 111.400 C 78.000 111.773,77.622 112.000,77.000 112.000 C 76.378 112.000,76.000 111.773,76.000 111.400 C 76.000 111.027,76.378 110.800,77.000 110.800 C 77.622 110.800,78.000 111.027,78.000 111.400 M229.600 119.500 C 229.600 119.749,229.780 120.064,230.000 120.200 C 230.220 120.336,230.400 120.876,230.400 121.400 C 230.400 121.924,230.583 122.466,230.807 122.604 C 231.030 122.742,231.092 123.051,230.945 123.289 C 230.778 123.559,230.864 123.608,231.173 123.417 C 231.531 123.196,231.548 122.988,231.235 122.675 C 230.996 122.436,230.794 121.871,230.787 121.420 C 230.780 120.969,230.510 120.251,230.187 119.824 C 229.864 119.396,229.600 119.251,229.600 119.500 M276.032 123.139 C 275.379 124.360,275.514 124.700,276.241 123.663 C 276.593 123.160,276.788 122.654,276.673 122.540 C 276.559 122.425,276.270 122.695,276.032 123.139 M233.600 132.500 C 233.600 132.801,233.853 133.393,234.162 133.816 C 234.688 134.535,234.711 134.513,234.514 133.486 C 234.292 132.322,233.600 131.575,233.600 132.500 M235.648 138.400 C 235.642 138.730,235.883 139.540,236.186 140.200 C 236.893 141.745,236.903 141.026,236.200 139.200 C 235.903 138.430,235.655 138.070,235.648 138.400 M240.213 153.531 C 240.363 153.824,240.631 154.544,240.809 155.131 C 241.067 155.989,241.138 156.037,241.166 155.376 C 241.185 154.924,240.917 154.204,240.570 153.776 C 240.224 153.349,240.063 153.239,240.213 153.531 M244.000 166.700 C 244.000 166.891,244.261 167.396,244.580 167.824 C 245.140 168.573,245.152 168.568,244.932 167.694 C 244.704 166.791,244.000 166.040,244.000 166.700 M262.386 167.901 C 261.545 169.587,261.540 169.600,261.747 169.600 C 262.005 169.600,263.242 167.108,263.069 166.936 C 262.995 166.862,262.688 167.296,262.386 167.901 M246.006 172.700 C 246.003 173.195,246.180 173.600,246.400 173.600 C 246.901 173.600,246.901 173.176,246.400 172.400 C 246.086 171.915,246.011 171.972,246.006 172.700 M246.685 174.262 C 246.567 174.453,246.725 174.956,247.035 175.381 C 247.434 175.926,247.598 175.984,247.594 175.576 C 247.585 174.770,246.944 173.843,246.685 174.262 M247.920 178.480 C 248.184 178.744,248.400 179.314,248.400 179.747 C 248.400 180.179,248.512 180.422,248.648 180.285 C 249.042 179.891,248.434 178.000,247.912 178.000 C 247.553 178.000,247.555 178.115,247.920 178.480 M90.300 181.900 C 102.675 181.959,122.925 181.959,135.300 181.900 C 147.675 181.841,137.550 181.793,112.800 181.793 C 88.050 181.793,77.925 181.841,90.300 181.900 M79.200 184.000 C 79.200 184.220,78.930 184.400,78.600 184.400 C 78.270 184.400,78.000 184.220,78.000 184.000 C 78.000 183.780,78.270 183.600,78.600 183.600 C 78.930 183.600,79.200 183.780,79.200 184.000 M72.800 185.000 C 72.800 185.330,72.530 185.600,72.200 185.600 C 71.870 185.600,71.600 185.330,71.600 185.000 C 71.600 184.670,71.870 184.400,72.200 184.400 C 72.530 184.400,72.800 184.670,72.800 185.000 M250.056 184.800 C 250.056 185.130,250.211 185.760,250.400 186.200 C 250.617 186.704,250.744 186.778,250.744 186.400 C 250.744 186.070,250.589 185.440,250.400 185.000 C 250.183 184.496,250.056 184.422,250.056 184.800 M256.667 185.867 C 256.520 186.013,256.411 186.508,256.425 186.967 C 256.449 187.733,256.482 187.723,256.834 186.842 C 257.226 185.863,257.144 185.389,256.667 185.867 M76.800 192.200 C 76.800 192.530,77.070 192.800,77.400 192.800 C 77.730 192.800,78.000 192.530,78.000 192.200 C 78.000 191.870,77.730 191.600,77.400 191.600 C 77.070 191.600,76.800 191.870,76.800 192.200 M84.400 192.200 C 84.400 192.530,84.130 192.800,83.800 192.800 C 83.470 192.800,83.200 193.070,83.200 193.400 C 83.200 193.730,83.470 194.000,83.800 194.000 C 84.130 194.000,84.400 194.180,84.400 194.400 C 84.400 194.620,84.850 194.800,85.400 194.800 C 85.950 194.800,86.400 194.620,86.400 194.400 C 86.400 194.180,86.130 194.000,85.800 194.000 C 85.470 194.000,85.200 193.730,85.200 193.400 C 85.200 193.070,85.470 192.800,85.800 192.800 C 86.130 192.800,86.400 192.530,86.400 192.200 C 86.400 191.827,86.022 191.600,85.400 191.600 C 84.778 191.600,84.400 191.827,84.400 192.200 M81.200 195.000 C 81.200 195.800,81.400 196.000,82.200 196.000 C 83.318 196.000,83.489 195.432,82.629 194.571 C 81.768 193.711,81.200 193.882,81.200 195.000 M74.229 196.571 C 74.903 197.246,74.978 198.000,74.371 198.000 C 73.818 198.000,72.800 196.982,72.800 196.429 C 72.800 195.822,73.554 195.897,74.229 196.571 M78.204 199.747 C 78.944 200.487,78.947 200.710,78.229 201.429 C 77.368 202.289,76.800 202.118,76.800 201.000 C 76.800 200.200,76.600 200.000,75.800 200.000 C 75.178 200.000,74.800 200.227,74.800 200.600 C 74.800 200.930,74.530 201.200,74.200 201.200 C 73.870 201.200,73.600 200.930,73.600 200.600 C 73.600 200.270,73.870 200.000,74.200 200.000 C 74.530 200.000,74.800 199.706,74.800 199.348 C 74.800 198.531,77.279 198.822,78.204 199.747 M82.000 199.400 C 82.000 199.800,82.400 200.000,83.200 200.000 C 84.000 200.000,84.400 199.800,84.400 199.400 C 84.400 199.000,84.000 198.800,83.200 198.800 C 82.400 198.800,82.000 199.000,82.000 199.400 M80.000 206.200 C 80.000 207.145,80.120 207.200,82.200 207.200 C 83.410 207.200,84.400 207.020,84.400 206.800 C 84.400 206.580,83.860 206.400,83.200 206.400 C 82.400 206.400,82.000 206.200,82.000 205.800 C 82.000 205.427,81.622 205.200,81.000 205.200 C 80.200 205.200,80.000 205.400,80.000 206.200 M74.800 209.000 C 74.800 209.330,74.530 209.600,74.200 209.600 C 73.870 209.600,73.600 209.330,73.600 209.000 C 73.600 208.670,73.870 208.400,74.200 208.400 C 74.530 208.400,74.800 208.670,74.800 209.000 M79.200 209.000 C 79.200 209.330,79.380 209.600,79.600 209.600 C 79.820 209.600,80.000 209.330,80.000 209.000 C 80.000 208.670,79.820 208.400,79.600 208.400 C 79.380 208.400,79.200 208.670,79.200 209.000 M82.000 209.000 C 82.000 209.400,82.400 209.600,83.200 209.600 C 84.000 209.600,84.400 209.400,84.400 209.000 C 84.400 208.600,84.000 208.400,83.200 208.400 C 82.400 208.400,82.000 208.600,82.000 209.000 M76.000 213.000 C 76.000 213.330,75.730 213.600,75.400 213.600 C 75.070 213.600,74.800 213.330,74.800 213.000 C 74.800 212.670,75.070 212.400,75.400 212.400 C 75.730 212.400,76.000 212.670,76.000 213.000 M80.000 213.000 C 80.000 213.330,80.270 213.600,80.600 213.600 C 80.930 213.600,81.200 213.330,81.200 213.000 C 81.200 212.670,80.930 212.400,80.600 212.400 C 80.270 212.400,80.000 212.670,80.000 213.000 M76.000 216.200 C 76.000 216.530,75.730 216.800,75.400 216.800 C 75.070 216.800,74.800 216.530,74.800 216.200 C 74.800 215.870,75.070 215.600,75.400 215.600 C 75.730 215.600,76.000 215.870,76.000 216.200 M181.649 217.609 C 182.254 219.400,182.595 219.748,182.228 218.200 C 182.071 217.540,181.771 216.824,181.561 216.609 C 181.350 216.394,181.390 216.844,181.649 217.609 M77.200 218.200 C 77.200 218.530,76.930 218.800,76.600 218.800 C 76.270 218.800,76.000 218.530,76.000 218.200 C 76.000 217.870,76.270 217.600,76.600 217.600 C 76.930 217.600,77.200 217.870,77.200 218.200 M74.000 219.400 C 74.000 219.730,73.730 220.000,73.400 220.000 C 73.070 220.000,72.800 219.730,72.800 219.400 C 72.800 219.070,73.070 218.800,73.400 218.800 C 73.730 218.800,74.000 219.070,74.000 219.400 M80.000 219.800 C 80.000 220.600,80.200 220.800,81.000 220.800 C 81.800 220.800,82.000 220.600,82.000 219.800 C 82.000 219.000,81.800 218.800,81.000 218.800 C 80.200 218.800,80.000 219.000,80.000 219.800 M83.200 220.200 C 83.200 220.573,83.578 220.800,84.200 220.800 C 84.822 220.800,85.200 220.573,85.200 220.200 C 85.200 219.827,84.822 219.600,84.200 219.600 C 83.578 219.600,83.200 219.827,83.200 220.200 M72.800 221.400 C 72.800 221.730,72.530 222.000,72.200 222.000 C 71.870 222.000,71.600 221.730,71.600 221.400 C 71.600 221.070,71.870 220.800,72.200 220.800 C 72.530 220.800,72.800 221.070,72.800 221.400 M74.800 221.400 C 74.800 221.730,74.620 222.000,74.400 222.000 C 74.180 222.000,74.000 221.730,74.000 221.400 C 74.000 221.070,74.180 220.800,74.400 220.800 C 74.620 220.800,74.800 221.070,74.800 221.400 M83.200 225.400 C 83.200 225.773,83.578 226.000,84.200 226.000 C 84.822 226.000,85.200 225.773,85.200 225.400 C 85.200 225.027,84.822 224.800,84.200 224.800 C 83.578 224.800,83.200 225.027,83.200 225.400 M86.400 225.400 C 86.400 225.730,86.670 226.000,87.000 226.000 C 87.330 226.000,87.600 225.730,87.600 225.400 C 87.600 225.070,87.330 224.800,87.000 224.800 C 86.670 224.800,86.400 225.070,86.400 225.400 M78.000 226.200 C 78.000 227.100,78.160 227.200,79.600 227.200 C 80.756 227.200,81.200 227.033,81.200 226.600 C 81.200 226.227,80.822 226.000,80.200 226.000 C 79.650 226.000,79.200 225.820,79.200 225.600 C 79.200 225.380,78.930 225.200,78.600 225.200 C 78.227 225.200,78.000 225.578,78.000 226.200 M76.000 226.600 C 76.000 226.930,75.730 227.200,75.400 227.200 C 75.070 227.200,74.800 226.930,74.800 226.600 C 74.800 226.270,75.070 226.000,75.400 226.000 C 75.730 226.000,76.000 226.270,76.000 226.600 M72.800 227.600 C 72.800 227.820,72.530 228.000,72.200 228.000 C 71.870 228.000,71.600 227.820,71.600 227.600 C 71.600 227.380,71.870 227.200,72.200 227.200 C 72.530 227.200,72.800 227.380,72.800 227.600 M110.584 259.517 C 110.880 259.813,142.070 259.654,142.375 259.355 C 142.471 259.261,135.294 259.195,126.426 259.209 C 117.557 259.223,110.429 259.362,110.584 259.517 M99.100 259.898 C 100.915 259.972,103.885 259.972,105.700 259.898 C 107.515 259.823,106.030 259.763,102.400 259.763 C 98.770 259.763,97.285 259.823,99.100 259.898 M170.375 260.754 C 170.624 261.219,171.047 261.597,171.314 261.594 C 171.659 261.590,171.644 261.489,171.266 261.249 C 170.972 261.063,170.761 260.755,170.796 260.565 C 170.831 260.375,170.649 260.150,170.391 260.064 C 170.037 259.946,170.033 260.114,170.375 260.754 M94.992 297.800 C 94.992 318.260,95.041 326.571,95.100 316.270 C 95.159 305.968,95.159 289.228,95.100 279.070 C 95.040 268.911,94.992 277.340,94.992 297.800 M171.600 263.487 C 171.600 263.743,171.756 264.049,171.946 264.167 C 172.137 264.285,172.223 264.880,172.138 265.490 C 171.989 266.557,171.999 266.564,172.391 265.667 C 172.698 264.965,172.650 264.521,172.199 263.878 C 171.870 263.407,171.600 263.231,171.600 263.487 M173.600 269.400 C 173.600 269.950,173.755 270.400,173.945 270.400 C 174.134 270.400,174.203 269.950,174.098 269.400 C 173.993 268.850,173.838 268.400,173.753 268.400 C 173.669 268.400,173.600 268.850,173.600 269.400 M174.498 272.400 C 174.661 273.647,175.454 275.079,175.794 274.740 C 175.933 274.600,175.669 273.791,175.207 272.943 C 174.526 271.693,174.392 271.590,174.498 272.400 M366.600 273.079 C 367.888 274.394,370.481 276.443,369.600 275.450 C 369.050 274.829,368.060 273.950,367.400 273.496 C 366.740 273.042,366.380 272.854,366.600 273.079 M317.978 275.100 L 316.600 276.600 318.196 275.200 C 319.073 274.430,319.868 273.755,319.962 273.700 C 320.056 273.645,319.959 273.600,319.745 273.600 C 319.532 273.600,318.737 274.275,317.978 275.100 M176.813 279.276 C 176.806 279.648,176.992 280.071,177.227 280.216 C 177.932 280.652,178.030 280.193,177.409 279.371 C 176.897 278.694,176.824 278.683,176.813 279.276 M178.406 283.476 C 178.403 283.958,178.580 284.464,178.800 284.600 C 179.309 284.915,179.309 283.988,178.800 283.200 C 178.485 282.712,178.411 282.764,178.406 283.476 M179.600 287.906 C 179.600 288.398,179.768 288.800,179.973 288.800 C 180.178 288.800,180.465 289.174,180.610 289.630 C 180.754 290.087,180.957 290.376,181.060 290.273 C 181.163 290.170,180.877 289.394,180.424 288.549 C 179.763 287.316,179.600 287.189,179.600 287.906 M180.819 291.400 C 180.809 291.994,181.523 293.010,181.774 292.759 C 181.894 292.640,181.729 292.195,181.409 291.771 C 181.088 291.347,180.822 291.180,180.819 291.400 M183.200 298.751 C 183.200 298.998,183.367 299.200,183.571 299.200 C 183.775 299.200,184.024 299.515,184.124 299.900 C 184.279 300.491,184.314 300.498,184.354 299.949 C 184.379 299.591,184.130 299.074,183.800 298.800 C 183.385 298.456,183.200 298.441,183.200 298.751 M184.962 304.462 C 184.785 304.748,184.852 304.815,185.138 304.638 C 185.412 304.469,185.600 304.607,185.600 304.976 C 185.600 305.319,185.786 305.600,186.014 305.600 C 186.295 305.600,186.290 305.342,186.000 304.800 C 185.505 303.876,185.354 303.827,184.962 304.462 M187.887 313.500 C 188.403 314.878,189.597 316.599,189.599 315.967 C 189.599 315.618,189.465 315.198,189.300 315.033 C 189.135 314.868,188.984 314.613,188.965 314.467 C 188.879 313.800,188.282 312.800,187.970 312.800 C 187.780 312.800,187.743 313.115,187.887 313.500 M190.012 318.800 C 190.012 319.490,190.680 320.670,190.911 320.388 C 190.996 320.285,190.829 319.750,190.539 319.200 C 190.248 318.649,190.012 318.469,190.012 318.800 M191.369 323.000 C 191.527 323.440,191.756 324.295,191.878 324.900 C 192.000 325.505,192.268 326.000,192.474 326.000 C 192.679 326.000,192.756 325.852,192.644 325.672 C 192.533 325.492,192.349 324.832,192.236 324.207 C 192.122 323.581,191.816 322.874,191.556 322.635 C 191.199 322.307,191.153 322.397,191.369 323.000 M316.703 324.200 C 317.602 325.517,319.537 327.435,319.698 327.168 C 319.754 327.076,318.919 326.100,317.842 325.000 C 316.654 323.786,316.206 323.471,316.703 324.200 M368.764 325.658 C 367.974 326.506,367.444 327.200,367.585 327.200 C 367.958 327.200,370.578 324.440,370.373 324.264 C 370.278 324.183,369.554 324.810,368.764 325.658 M194.353 332.033 C 194.500 332.752,194.844 333.415,195.118 333.506 C 195.512 333.637,195.515 333.436,195.132 332.536 C 194.392 330.799,194.057 330.582,194.353 332.033 M59.900 335.487 C 59.295 335.578,58.305 335.578,57.700 335.487 C 57.095 335.395,57.590 335.320,58.800 335.320 C 60.010 335.320,60.505 335.395,59.900 335.487 M65.507 335.486 C 64.906 335.577,63.826 335.579,63.107 335.490 C 62.388 335.401,62.880 335.326,64.200 335.324 C 65.520 335.322,66.108 335.395,65.507 335.486 M105.500 335.900 C 110.835 335.963,119.565 335.963,124.900 335.900 C 130.235 335.837,125.870 335.785,115.200 335.785 C 104.530 335.785,100.165 335.837,105.500 335.900 M150.500 336.300 C 158.365 336.360,171.235 336.360,179.100 336.300 C 186.965 336.239,180.530 336.190,164.800 336.190 C 149.070 336.190,142.635 336.239,150.500 336.300 " stroke="none" fill="#ec545c" fill-rule="evenodd"></path></g></svg>