<svg id="svg" xmlns="http://www.w3.org/2000/svg" xmlns:xlink="http://www.w3.org/1999/xlink" width="400" height="165.6387665198238" viewBox="0, 0, 400,165.6387665198238"><g id="svgg"><path id="path0" d="M156.828 83.700 L 156.828 155.066 170.000 155.066 L 183.173 155.066 183.657 126.432 L 184.141 97.797 208.372 97.797 L 232.602 97.797 232.604 86.344 L 232.606 74.890 210.440 75.433 C 182.506 76.118,183.260 76.691,183.260 54.762 C 183.260 33.052,182.779 33.480,207.185 33.480 C 231.846 33.480,227.627 27.783,247.639 88.106 C 251.979 101.189,256.217 113.110,257.057 114.595 C 257.896 116.081,259.173 120.046,259.895 123.406 C 260.617 126.766,261.691 130.308,262.282 131.278 C 262.873 132.247,264.960 137.797,266.920 143.612 L 270.485 154.185 285.571 154.689 C 303.590 155.292,300.455 159.510,315.419 114.537 C 321.384 96.608,326.935 80.352,327.754 78.414 C 330.690 71.467,348.899 16.278,348.899 14.327 C 348.899 11.418,322.590 11.621,321.637 14.537 C 321.241 15.749,316.856 29.824,311.892 45.815 C 306.929 61.806,301.580 78.458,300.007 82.819 C 298.434 87.181,295.047 99.030,292.482 109.152 C 286.680 132.039,285.452 132.468,280.843 113.223 C 277.368 98.713,264.035 54.424,260.816 46.696 C 260.009 44.758,257.224 36.233,254.627 27.753 L 249.907 12.335 203.367 12.335 L 156.828 12.335 156.828 83.700 M267.841 14.014 C 267.841 14.938,268.585 17.515,269.494 19.741 C 270.403 21.967,272.856 29.736,274.944 37.004 C 277.032 44.273,280.412 55.328,282.454 61.571 L 286.166 72.921 288.360 65.095 C 294.342 43.757,302.590 17.528,303.652 16.466 C 306.922 13.196,303.315 12.335,286.344 12.335 C 275.793 12.335,267.841 13.056,267.841 14.014 M202.496 117.026 C 202.093 117.426,202.011 126.149,202.316 136.410 L 202.870 155.066 226.545 155.066 C 254.201 155.066,252.693 156.917,244.548 132.974 L 238.876 116.300 221.053 116.300 C 211.251 116.300,202.900 116.627,202.496 117.026 M331.278 119.633 C 331.278 120.497,329.243 121.715,326.756 122.339 C 316.889 124.815,314.910 141.853,323.547 149.966 C 337.628 163.195,359.160 143.315,348.003 127.386 C 344.003 121.675,331.278 115.776,331.278 119.633 " stroke="none" fill="#000000" fill-rule="evenodd"></path></g></svg>